<?xml version="1.0" encoding="UTF-8"?>
<!-- Generated by jsxcad -->
<!DOCTYPE svg PUBLIC "-//W3C//DTD SVG 1.1 Tiny//EN" "http://www.w3.org/Graphics/SVG/1.1/DTD/svg11-tiny.dtd">
<svg baseProfile="tiny" height="25.78642927382812mm" width="6.1472166090200995mm" viewBox="-3.0472166090200976 -32.98629441624367 6.1472166090200995 25.78642927382812" version="1.1" stroke="black" stroke-width=".1" fill="none" xmlns="http://www.w3.org/2000/svg">
<path fill="#3c3c3c" stroke="#3c3c3c" d="M2.890663911153504 8.591690489207533 L2.8906639111535033 9.757578814080631 L3.100000000000001 10.550000000000002 L3.1 9.384111675126906 z"/>
<path fill="#3c3c3c" stroke="#3c3c3c" d="M2.2909276433840455 7.906290175403946 L2.290927643384046 9.072178500277042 L2.890663911153506 9.75757881408063 L2.8906639111535055 8.591690489207533 z"/>
<path fill="#3c3c3c" stroke="#3c3c3c" d="M0.28603191433623565 7.199865142415551 L0.28603191433623565 8.365753467288643 L1.381788902907268 8.586366168902652 L1.381788902907268 7.420477844029559 z"/>
<path fill="#3c3c3c" stroke="#3c3c3c" d="M-0.8483552692234572 7.274247038372068 L-0.8483552692234572 8.440135363245162 L0.28603191433623565 8.365753467288643 L0.28603191433623565 7.199865142415549 z"/>
<path fill="#3c3c3c" stroke="#3c3c3c" d="M1.3817889029072705 7.4204778440295645 L1.3817889029072732 8.586366168902662 L2.290927643384047 9.072178500277044 L2.290927643384044 7.906290175403946 z"/>
<path fill="#3c3c3c" stroke="#3c3c3c" d="M-1.868167372775695 7.633577844685872 L-1.868167372775695 8.799466169558972 L-0.8483552692234572 8.440135363245169 L-0.8483552692234572 7.274247038372068 z"/>
<path fill="#3c3c3c" stroke="#3c3c3c" d="M-3.047216609020096 8.981037986653543 L-3.0472166090200976 10.146926311526638 L-2.6356731207618047 9.39521626971665 L-2.6356731207618056 8.229327944843554 z"/>
<path fill="#3c3c3c" stroke="#3c3c3c" d="M-3.047216609020095 9.78718536360027 L-3.047216609020095 10.953073688473367 L-3.0472166090200954 10.14692631152664 L-3.0472166090200954 8.981037986653543 z"/>
<path fill="#3c3c3c" stroke="#3c3c3c" d="M-2.6356731207618074 8.229327944843552 L-2.6356731207618065 9.39521626971665 L-1.8681673727756964 8.799466169558976 L-1.8681673727756964 7.633577844685878 z"/>
<path fill="#3c3c3c" stroke="#3c3c3c" d="M-2.6356731207618025 10.53889540541026 L-2.6356731207618007 11.704783730283356 L-3.0472166090200945 10.953073688473367 L-3.047216609020093 9.78718536360027 z"/>
<path fill="#3c3c3c" stroke="#3c3c3c" d="M-1.8681673727756922 11.134645505567937 L-1.8681673727756922 12.300533830441033 L-2.6356731207617985 11.704783730283355 L-2.6356731207617985 10.53889540541026 z"/>
<path fill="#3c3c3c" stroke="#3c3c3c" d="M-0.8483552692234548 11.493976311881736 L-0.8483552692234548 12.65986463675483 L-1.8681673727756933 12.300533830441026 L-1.8681673727756933 11.134645505567933 z"/>
<path fill="#3c3c3c" stroke="#3c3c3c" d="M0.2860319143362363 11.568358207838257 L0.2860319143362363 12.73424653271135 L-0.8483552692234548 12.65986463675483 L-0.8483552692234548 11.493976311881738 z"/>
<path fill="#3c3c3c" stroke="#3c3c3c" d="M1.3817889029072694 11.347745506224241 L1.3817889029072694 12.513633831097344 L0.2860319143362363 12.734246532711351 L0.2860319143362363 11.56835820783825 z"/>
<path fill="#3c3c3c" stroke="#3c3c3c" d="M2.290927643384041 10.861933174849867 L2.2909276433840406 12.027821499722963 L1.3817889029072674 12.513633831097344 L1.381788902907268 11.34774550622425 z"/>
<path fill="#3c3c3c" stroke="#3c3c3c" d="M3.0999999999999996 9.384111675126906 L3.1 10.550000000000002 L2.8906639111535037 11.342421185919372 L2.8906639111535033 10.176532861046276 z"/>
<path fill="#3c3c3c" stroke="#3c3c3c" d="M2.890663911153503 10.176532861046276 L2.8906639111535 11.342421185919372 L2.2909276433840398 12.027821499722961 L2.2909276433840424 10.861933174849867 z"/>
<path fill="#3c3c3c" stroke="#3c3c3c" d="M2.8906639111535033 8.591690489207535 L3.1 9.384111675126906 L2.890663911153504 10.176532861046276 L2.2909276433840438 10.861933174849867 L1.3817889029072696 11.34774550622425 L0.28603191433623637 11.568358207838259 L-0.8483552692234549 11.49397631188174 L-1.8681673727756938 11.134645505567937 L-2.635673120761803 10.53889540541026 L-3.0472166090200954 9.78718536360027 L-3.047216609020096 8.981037986653543 L-2.6356731207618043 8.229327944843552 L-1.8681673727756953 7.633577844685877 L-0.8483552692234573 7.274247038372074 L0.2860319143362357 7.199865142415556 L1.3817889029072683 7.420477844029564 L2.290927643384043 7.906290175403946 z"/>
<path fill="#3c3c3c" stroke="#3c3c3c" d="M2.8906639111535033 9.75757881408063 L2.290927643384043 9.07217850027704 L1.3817889029072683 8.58636616890266 L0.2860319143362357 8.365753467288652 L-0.8483552692234573 8.44013536324517 L-1.8681673727756953 8.799466169558974 L-2.6356731207618043 9.39521626971665 L-3.047216609020096 10.14692631152664 L-3.0472166090200954 10.953073688473367 L-2.635673120761803 11.704783730283356 L-1.8681673727756938 12.300533830441031 L-0.8483552692234549 12.659864636754834 L0.28603191433623637 12.734246532711355 L1.3817889029072696 12.513633831097346 L2.2909276433840438 12.027821499722963 L2.890663911153504 11.342421185919372 L3.1 10.550000000000002 z"/>
<path fill="#3c3c3c" stroke="#3c3c3c" d="M1.515544456622769 9.93083756345178 L1.5155444566227674 31.128807106598984 L1.7500000000000002 31.74796954314721 L1.750000000000001 10.550000000000002 z"/>
<path fill="#3c3c3c" stroke="#3c3c3c" d="M0.8750000000000029 9.47757920176034 L0.8750000000000056 30.67554874490754 L1.515544456622774 31.128807106598984 L1.51554445662277 9.930837563451778 z"/>
<path fill="#3c3c3c" stroke="#3c3c3c" d="M3.0518849357575523e-16 9.311675126903554 L3.0518849357575523e-16 30.50964467005075 L0.8750000000000001 30.675548744907534 L0.8750000000000001 9.477579201760337 z"/>
<path fill="#3c3c3c" stroke="#3c3c3c" d="M-0.8749999999999996 9.477579201760333 L-0.8749999999999996 30.675548744907537 L3.0518849357575523e-16 30.509644670050754 L3.0518849357575523e-16 9.31167512690355 z"/>
<path fill="#3c3c3c" stroke="#3c3c3c" d="M-1.5155444566227698 9.93083756345178 L-1.5155444566227718 31.128807106598984 L-0.8750000000000034 30.675548744907545 L-0.8750000000000011 9.47757920176034 z"/>
<path fill="#3c3c3c" stroke="#3c3c3c" d="M-1.7500000000000016 10.550000000000002 L-1.75 31.74796954314721 L-1.5155444566227667 31.12880710659898 L-1.515544456622769 9.93083756345178 z"/>
<path fill="#3c3c3c" stroke="#3c3c3c" d="M-1.5155444566227674 11.169162436548225 L-1.5155444566227676 32.36713197969543 L-1.7500000000000002 31.747969543147203 L-1.7499999999999991 10.55 z"/>
<path fill="#3c3c3c" stroke="#3c3c3c" d="M0.8749999999999987 11.622420798239666 L0.8749999999999987 32.82039034138687 L-1.7686254243260057e-15 32.98629441624365 L-1.7686254243260057e-15 11.788324873096448 z"/>
<path fill="#3c3c3c" stroke="#3c3c3c" d="M-0.8749999999999996 11.622420798239666 L-0.8749999999999944 32.82039034138687 L-1.5155444566227623 32.36713197969543 L-1.515544456622767 11.169162436548227 z"/>
<path fill="#3c3c3c" stroke="#3c3c3c" d="M-1.7686254243260059e-15 11.788324873096446 L-1.7686254243260059e-15 32.986294416243645 L-0.8750000000000011 32.82039034138686 L-0.8750000000000011 11.622420798239663 z"/>
<path fill="#3c3c3c" stroke="#3c3c3c" d="M1.5155444566227654 11.169162436548227 L1.5155444566227605 32.36713197969543 L0.8749999999999981 32.820390341386876 L0.8749999999999958 11.622420798239666 z"/>
<path fill="#3c3c3c" stroke="#3c3c3c" d="M1.7499999999999987 10.550000000000002 L1.7500000000000002 31.747969543147207 L1.5155444566227667 32.36713197969543 L1.5155444566227658 11.169162436548227 z"/>
<path fill="#3c3c3c" stroke="#3c3c3c" d="M1.5155444566227678 9.93083756345178 L1.75 10.55 L1.5155444566227674 11.169162436548227 L0.8749999999999989 11.622420798239668 L-1.768625424326006e-15 11.78832487309645 L-0.8750000000000013 11.622420798239665 L-1.5155444566227683 11.169162436548225 L-1.75 10.55 L-1.5155444566227674 9.930837563451778 L-0.8749999999999997 9.477579201760337 L3.051884935757553e-16 9.311675126903555 L0.8750000000000002 9.477579201760337 z"/>
<path fill="#3c3c3c" stroke="#3c3c3c" d="M1.75 31.747969543147207 L1.5155444566227678 31.128807106598988 L0.8750000000000002 30.675548744907545 L3.051884935757553e-16 30.50964467005076 L-0.8749999999999997 30.675548744907545 L-1.5155444566227674 31.128807106598988 L-1.75 31.747969543147207 L-1.5155444566227683 32.36713197969543 L-0.8750000000000013 32.82039034138687 L-1.768625424326006e-15 32.98629441624365 L0.8749999999999989 32.82039034138687 L1.5155444566227674 32.36713197969543 z"/>
</svg>