<?xml version="1.0" encoding="UTF-8"?>
<!-- Generated by jsxcad -->
<!DOCTYPE svg PUBLIC "-//W3C//DTD SVG 1.1 Tiny//EN" "http://www.w3.org/Graphics/SVG/1.1/DTD/svg11-tiny.dtd">
<svg viewBox="-250 -250 500 500" width="500" height="500" xmlns="http://www.w3.org/2000/svg"><path d="M69.23523332911827,96.93545370821938L68.89670709865563,96.19611332922659L-39.992885423778624,-124.15113406115569z" style="fill:rgb(242,182,131)"/><path d="M-77.69563820737774,-104.305147300132L38.36713372920614,112.37708303564794L38.80263134638509,113.06538948471507z" style="fill:rgb(17,63,135)"/><path d="M69.51184424269942,97.70358770881136L69.23523332911827,96.93545370821938L-39.67999100602044,-123.45099150743643z" style="fill:rgb(244,177,137)"/><path d="M-77.26981821028602,-103.66401477564493L38.80263134638509,113.06538948471507L39.29670005170694,113.71863420124018z" style="fill:rgb(20,59,140)"/><path d="M69.7253021207261,98.49753619443746L69.51184424269942,97.70358770881136L-39.44300575817964,-122.71436555706659z" style="fill:rgb(245,172,143)"/><path d="M-76.77099249298831,-103.06480474284592L39.29670005170694,113.71863420124018L39.84751186622512,114.33412006551954z" style="fill:rgb(24,55,146)"/><path d="M69.87460594931079,99.31419631726617L69.7253021207261,98.49753619443746L-39.283084913528135,-121.94407519617349z" style="fill:rgb(246,166,149)"/><path d="M-76.20092524641719,-102.51000284805056L39.84751186622512,114.33412006551954L40.453005309008596,114.9093279920758z" style="fill:rgb(28,51,152)"/><path d="M69.95902589288714,100.15037346921389L69.87460594931079,99.31419631726617L-39.20109007340805,-121.14308942354916z" style="fill:rgb(247,161,155)"/><path d="M-75.5616914138582,-102.00195842650305L40.453005309008596,114.9093279920758L41.11089330596883,115.44186447165679z" style="fill:rgb(32,47,158)"/><path d="M69.978065076281,101.00276376076044L69.95902589288714,100.15037346921389L-39.19756171741096,-120.31453212465745z" style="fill:rgb(247,155,161)"/><path d="M-74.85566390176251,-101.54283260653116L41.11089330596883,115.44186447165679L41.81865247508683,115.9295131506569z" style="fill:rgb(37,44,163)"/><path d="M69.93151800722902,101.86799931903997L69.978065076281,101.00276376076044L-39.2727382292332,-119.46164606662802z" style="fill:rgb(246,149,166)"/><path d="M-74.0854850865955,-101.13460338268698L41.81865247508683,115.9295131506569L42.57356085086584,116.37020675656284z" style="fill:rgb(42,41,169)"/><path d="M69.81941991053206,102.74263413096551L69.93151800722902,101.86799931903997L-39.426524417421746,-118.58777908681185z" style="fill:rgb(245,143,172)"/><path d="M-73.25407883082033,-100.7790319069574L42.57356085086584,116.37020675656284L43.37268538824813,116.76209481864959z" style="fill:rgb(48,39,174)"/><path d="M69.64209079764872,103.62316161908106L69.81941991053206,102.74263413096551L-39.658514014888496,-117.69640909317961z" style="fill:rgb(244,137,177)"/><path d="M-72.36463954203965,-100.47771534487188L43.37268538824813,116.76209481864959L44.21289759449864,117.10348311320219z" style="fill:rgb(54,37,179)"/><path d="M69.40011156596461,104.50606563669348L69.64209079764872,103.62316161908106L-39.96796703801412,-116.79106739314994z" style="fill:rgb(242,131,182)"/><path d="M-71.42061319972213,-100.2319817210848L44.21289759449864,117.10348311320219L45.09089810223431,117.39290677808165z" style="fill:rgb(60,35,184)"/><path d="M69.09433647011296,105.38776567450216L69.40011156596461,104.50606563669348L-40.35382614062926,-115.87540690124295z" style="fill:rgb(240,125,187)"/><path d="M-70.42570112537013,-100.04298355396597L45.09089810223431,117.39290677808165L46.003203414660824,117.62909819376898z" style="fill:rgb(66,34,189)"/><path d="M68.7258816321249,106.26471408819441L69.09433647011296,105.38776567450216L-40.814705427661096,-114.95309841614652z" style="fill:rgb(237,120,191)"/><path d="M-69.38381814456453,-99.91161041826813L46.003203414660824,117.62909819376898L46.94618792735658,117.81100631551149z" style="fill:rgb(73,33,193)"/><path d="M68.29613097455942,107.13333988818081L68.7258816321249,106.26471408819441L-41.34890513113845,-114.02788773128859z" style="fill:rgb(234,114,195)"/><path d="M-68.29910027375702,-99.83853494373015L46.94618792735658,117.81100631551149L47.91608095727014,117.9377927762177z" style="fill:rgb(79,32,198)"/><path d="M67.8067272207797,107.99012295781841L68.29613097455942,107.13333988818081L-41.95440224328668,-113.10354040187538z" style="fill:rgb(230,108,199)"/><path d="M-67.17587735062112,-99.82415460666637L47.91608095727014,117.9377927762177L48.908991857052676,118.00887323630292z" style="fill:rgb(86,32,201)"/><path d="M67.25956989237855,108.83154383794414L67.8067272207797,107.99012295781841L-42.62887560140997,-112.18382137997763z" style="fill:rgb(226,102,203)"/><path d="M-66.01867564824833,-99.86865607455664L48.908991857052676,118.00887323630292L49.92091085131295,118.02386134612102z" style="fill:rgb(94,32,205)"/><path d="M66.65680016379692,109.65416697649454L67.25956989237855,108.83154383794414L-43.36969409181537,-111.27250403384605z" style="fill:rgb(222,96,207)"/><path d="M-64.83216144590534,-99.97197150466872L49.92091085131295,118.02386134612102L50.94775003446476,117.98263086394351z" style="fill:rgb(101,32,208)"/><path d="M66.0007958300642,110.45461372179537L66.65680016379692,109.65416697649454L-44.17393651466317,-110.37333620905898z" style="fill:rgb(217,91,210)"/><path d="M-63.62114914129718,-100.13376240840259L50.94775003446476,117.98263086394351L51.98534490094903,117.88527814008518z" style="fill:rgb(108,33,211)"/><path d="M65.29417785174572,111.22960597484327L66.0007958300642,110.45461372179537L-45.0384114468041,-109.49002002040439z" style="fill:rgb(212,85,213)"/><path d="M-62.39057217113649,-100.35346949162931L51.98534490094903,117.88527814008518L53.02946654255534,117.73212449104047z" style="fill:rgb(116,34,214)"/><path d="M64.53977360104537,111.97593518889046L65.29417785174572,111.22960597484327L-45.959650266142155,-108.6262284421453z" style="fill:rgb(206,80,215)"/><path d="M-61.145471158667796,-100.6302479691265L53.02946654255534,117.73212449104047L54.07586419728018,117.52375962175628z" style="fill:rgb(123,36,216)"/><path d="M63.7406261781091,112.69055032963963L64.53977360104537,111.97593518889046L-46.93393767091009,-107.78551524010989z" style="fill:rgb(200,75,217)"/><path d="M-59.890946214695695,-100.9630535717204L54.07586419728018,117.52375962175628L55.12026134063192,117.26098086856639z" style="fill:rgb(131,38,218)"/><path d="M62.89996462614847,113.37048566458535L63.7406261781091,112.69055032963963L-47.95731899762757,-106.97137476295792z" style="fill:rgb(194,70,219)"/><path d="M-58.63215888909442,-101.35054787196333L55.12026134063192,117.26098086856639L56.15838231843389,116.94482214545755z" style="fill:rgb(138,40,220)"/><path d="M62.02119695705497,114.01294668520424L62.89996462614847,113.37048566458535L-49.02562074480853,-106.18720000428547z" style="fill:rgb(188,65,220)"/><path d="M-57.37429917858394,-101.79118183260496L56.15838231843389,116.94482214545755L57.18597799941717,116.5765519457034z" style="fill:rgb(146,43,221)"/><path d="M-51.27933392671348,-104.72161716189791L61.10791068088083,114.6152798312564L62.02119695705497,114.01294668520424z" style="fill:rgb(181,61,221)"/><path d="M-56.12255557289845,-102.28319279012472L57.18597799941717,116.5765519457034L58.198839127261884,116.15766445648889z" style="fill:rgb(153,46,222)"/><path d="M-52.45547279375495,-104.04629827573528L60.163830530127406,115.17501810183434L61.10791068088083,114.6152798312564z" style="fill:rgb(175,57,222)"/><path d="M-54.88209669656109,-102.82456506222611L58.198839127261884,116.15766445648889L59.192817362914354,115.68984824810292z" style="fill:rgb(160,49,222)"/><path d="M-53.6580463059614,-103.41307376905537L59.192817362914354,115.68984824810292L60.163830530127406,115.17501810183434z" style="fill:rgb(168,53,222)"/><path d="M-39.992885423778624,-124.15113406115569L-39.67999100602044,-123.45099150743643L69.23523332911827,96.93545370821938z" style="fill:rgb(242,182,131)"/><path d="M38.80263134638509,113.06538948471507L-77.26981821028602,-103.66401477564493L-77.69563820737774,-104.305147300132z" style="fill:rgb(17,63,135)"/><path d="M-39.67999100602044,-123.45099150743643L-39.44300575817964,-122.71436555706659L69.51184424269942,97.70358770881136z" style="fill:rgb(244,177,137)"/><path d="M39.29670005170694,113.71863420124018L-76.77099249298831,-103.06480474284592L-77.26981821028602,-103.66401477564493z" style="fill:rgb(20,59,140)"/><path d="M-39.44300575817964,-122.71436555706659L-39.283084913528135,-121.94407519617349L69.7253021207261,98.49753619443746z" style="fill:rgb(245,172,143)"/><path d="M39.84751186622512,114.33412006551954L-76.20092524641719,-102.51000284805056L-76.77099249298831,-103.06480474284592z" style="fill:rgb(24,55,146)"/><path d="M-39.283084913528135,-121.94407519617349L-39.20109007340805,-121.14308942354916L69.87460594931079,99.31419631726617z" style="fill:rgb(246,166,149)"/><path d="M40.453005309008596,114.9093279920758L-75.5616914138582,-102.00195842650305L-76.20092524641719,-102.51000284805056z" style="fill:rgb(28,51,152)"/><path d="M-39.20109007340805,-121.14308942354916L-39.19756171741096,-120.31453212465745L69.95902589288714,100.15037346921389z" style="fill:rgb(247,161,155)"/><path d="M41.11089330596883,115.44186447165679L-74.85566390176251,-101.54283260653116L-75.5616914138582,-102.00195842650305z" style="fill:rgb(32,47,158)"/><path d="M-39.19756171741096,-120.31453212465745L-39.2727382292332,-119.46164606662802L69.978065076281,101.00276376076044z" style="fill:rgb(247,155,161)"/><path d="M41.81865247508683,115.9295131506569L-74.0854850865955,-101.13460338268698L-74.85566390176251,-101.54283260653116z" style="fill:rgb(37,44,163)"/><path d="M-39.2727382292332,-119.46164606662802L-39.426524417421746,-118.58777908681185L69.93151800722902,101.86799931903997z" style="fill:rgb(246,149,166)"/><path d="M42.57356085086584,116.37020675656284L-73.25407883082033,-100.7790319069574L-74.0854850865955,-101.13460338268698z" style="fill:rgb(42,41,169)"/><path d="M-39.426524417421746,-118.58777908681185L-39.658514014888496,-117.69640909317961L69.81941991053206,102.74263413096551z" style="fill:rgb(245,143,172)"/><path d="M43.37268538824813,116.76209481864959L-72.36463954203965,-100.47771534487188L-73.25407883082033,-100.7790319069574z" style="fill:rgb(48,39,174)"/><path d="M-39.658514014888496,-117.69640909317961L-39.96796703801412,-116.79106739314994L69.64209079764872,103.62316161908106z" style="fill:rgb(244,137,177)"/><path d="M44.21289759449864,117.10348311320219L-71.42061319972213,-100.2319817210848L-72.36463954203965,-100.47771534487188z" style="fill:rgb(54,37,179)"/><path d="M-39.96796703801412,-116.79106739314994L-40.35382614062926,-115.87540690124295L69.40011156596461,104.50606563669348z" style="fill:rgb(242,131,182)"/><path d="M45.09089810223431,117.39290677808165L-70.42570112537013,-100.04298355396597L-71.42061319972213,-100.2319817210848z" style="fill:rgb(60,35,184)"/><path d="M-40.35382614062926,-115.87540690124295L-40.814705427661096,-114.95309841614652L69.09433647011296,105.38776567450216z" style="fill:rgb(240,125,187)"/><path d="M46.003203414660824,117.62909819376898L-69.38381814456453,-99.91161041826813L-70.42570112537013,-100.04298355396597z" style="fill:rgb(66,34,189)"/><path d="M-40.814705427661096,-114.95309841614652L-41.34890513113845,-114.02788773128859L68.7258816321249,106.26471408819441z" style="fill:rgb(237,119,191)"/><path d="M46.94618792735658,117.81100631551149L-68.29910027375702,-99.83853494373015L-69.38381814456453,-99.91161041826813z" style="fill:rgb(73,33,193)"/><path d="M-41.34890513113845,-114.02788773128859L-41.95440224328668,-113.10354040187538L68.29613097455942,107.13333988818081z" style="fill:rgb(234,114,195)"/><path d="M47.91608095727014,117.9377927762177L-67.17587735062112,-99.82415460666637L-68.29910027375702,-99.83853494373015z" style="fill:rgb(79,32,198)"/><path d="M-41.95440224328668,-113.10354040187538L-42.62887560140997,-112.18382137997763L67.8067272207797,107.99012295781841z" style="fill:rgb(230,108,199)"/><path d="M48.908991857052676,118.00887323630292L-66.01867564824833,-99.86865607455664L-67.17587735062112,-99.82415460666637z" style="fill:rgb(86,32,201)"/><path d="M-42.62887560140997,-112.18382137997763L-43.36969409181537,-111.27250403384605L67.25956989237855,108.83154383794414z" style="fill:rgb(226,102,203)"/><path d="M49.92091085131295,118.02386134612102L-64.83216144590534,-99.97197150466872L-66.01867564824833,-99.86865607455664z" style="fill:rgb(94,32,205)"/><path d="M-43.36969409181537,-111.27250403384605L-44.17393651466317,-110.37333620905898L66.65680016379692,109.65416697649454z" style="fill:rgb(222,96,207)"/><path d="M50.94775003446476,117.98263086394351L-63.62114914129718,-100.13376240840259L-64.83216144590534,-99.97197150466872z" style="fill:rgb(101,32,208)"/><path d="M-44.17393651466317,-110.37333620905898L-45.0384114468041,-109.49002002040439L66.0007958300642,110.45461372179537z" style="fill:rgb(217,91,210)"/><path d="M51.98534490094903,117.88527814008518L-62.39057217113649,-100.35346949162931L-63.62114914129718,-100.13376240840259z" style="fill:rgb(108,33,211)"/><path d="M-45.0384114468041,-109.49002002040439L-45.959650266142155,-108.6262284421453L65.29417785174572,111.22960597484327z" style="fill:rgb(212,85,213)"/><path d="M53.02946654255534,117.73212449104047L-61.145471158667796,-100.6302479691265L-62.39057217113649,-100.35346949162931z" style="fill:rgb(116,34,214)"/><path d="M-45.959650266142155,-108.6262284421453L-46.93393767091009,-107.78551524010989L64.53977360104537,111.97593518889046z" style="fill:rgb(206,80,215)"/><path d="M54.07586419728018,117.52375962175628L-59.890946214695695,-100.9630535717204L-61.145471158667796,-100.6302479691265z" style="fill:rgb(123,36,216)"/><path d="M-46.93393767091009,-107.78551524010989L-47.95731899762757,-106.97137476295792L63.7406261781091,112.69055032963963z" style="fill:rgb(200,75,217)"/><path d="M55.12026134063192,117.26098086856639L-58.63215888909442,-101.35054787196333L-59.890946214695695,-100.9630535717204z" style="fill:rgb(131,38,218)"/><path d="M-47.95731899762757,-106.97137476295792L-49.02562074480853,-106.18720000428547L62.89996462614847,113.37048566458535z" style="fill:rgb(194,70,219)"/><path d="M56.15838231843389,116.94482214545755L-57.37429917858394,-101.79118183260496L-58.63215888909442,-101.35054787196333z" style="fill:rgb(138,40,220)"/><path d="M-49.02562074480853,-106.18720000428547L-50.134480593419944,-105.43625071754518L62.02119695705497,114.01294668520424z" style="fill:rgb(188,65,220)"/><path d="M57.18597799941717,116.5765519457034L-56.12255557289845,-102.28319279012472L-57.37429917858394,-101.79118183260496z" style="fill:rgb(146,43,221)"/><path d="M62.02119695705497,114.01294668520424L-50.134480593419944,-105.43625071754518L-51.27933392671348,-104.72161716189791z" style="fill:rgb(181,61,221)"/><path d="M58.198839127261884,116.15766445648889L-54.88209669656109,-102.82456506222611L-56.12255557289845,-102.28319279012472z" style="fill:rgb(153,46,222)"/><path d="M61.10791068088083,114.6152798312564L-51.27933392671348,-104.72161716189791L-52.45547279375495,-104.04629827573528z" style="fill:rgb(175,57,222)"/><path d="M59.192817362914354,115.68984824810292L-53.6580463059614,-103.41307376905537L-54.88209669656109,-102.82456506222611z" style="fill:rgb(160,49,222)"/><path d="M60.163830530127406,115.17501810183434L-52.45547279375495,-104.04629827573528L-53.6580463059614,-103.41307376905537z" style="fill:rgb(168,53,222)"/><path d="M-64.22909937472234,-125.38318128177134L-65.39564970991437,-124.76934431564376L-66.53754437596047,-124.11578154850773zM-61.839668447222124,-126.48259383435182L-63.042282550640984,-125.9549874402177L-64.22909937472234,-125.38318128177134zM-64.22909937472234,-125.38318128177134L-66.53754437596047,-124.11578154850773L-68.73019276662896,-122.699461574714zM-59.405211729682115,-127.39740475292699L-61.839668447222124,-126.48259383435182L-64.22909937472234,-125.38318128177134zM-66.53754437596047,-124.11578154850773L-67.65045947123005,-123.42496044995099L-68.73019276662896,-122.699461574714zM-59.405211729682115,-127.39740475292699L-64.22909937472234,-125.38318128177134L-68.73019276662896,-122.699461574714zM-59.405211729682115,-127.39740475292699L-60.62578456681634,-126.96401700112241L-61.839668447222124,-126.48259383435182zM-68.73019276662896,-122.699461574714L-69.77265005167907,-121.94200730206734L-70.77387421362215,-121.1554370913711zM-56.96240900324778,-128.11358120091933L-58.182547150461744,-127.78109049556844L-59.405211729682115,-127.39740475292699zM-68.73019276662896,-122.699461574714L-70.77387421362215,-121.1554370913711L-72.63746479548507,-119.50680065202457zM-54.54817023071194,-128.6199426909831L-56.96240900324778,-128.11358120091933L-59.405211729682115,-127.39740475292699zM-70.77387421362215,-121.1554370913711L-71.73003355659567,-120.34268214465564L-72.63746479548507,-119.50680065202457zM-54.54817023071194,-128.6199426909831L-55.74941640861467,-128.39357818510226L-56.96240900324778,-128.11358120091933zM-49.951235851232894,-128.97358008723702L-59.405211729682115,-127.39740475292699L-68.73019276662896,-122.699461574714zM-68.73019276662896,-122.699461574714L-72.63746479548507,-119.50680065202457L-75.71269871318215,-115.99591911185124zM-72.63746479548507,-119.50680065202457L-73.49266469690409,-118.65093592395533L-74.29231848666164,-117.77829699298339zM-49.951235851232894,-128.97358008723702L-54.54817023071194,-128.6199426909831L-59.405211729682115,-127.39740475292699zM-52.19913777658043,-128.90829601670237L-53.36323704718172,-128.79175921796875L-54.54817023071194,-128.6199426909831zM-72.63746479548507,-119.50680065202457L-74.29231848666164,-117.77829699298339L-75.71269871318215,-115.99591911185124zM-49.951235851232894,-128.97358008723702L-52.19913777658043,-128.90829601670237L-54.54817023071194,-128.6199426909831zM-75.06349473484553,-146.87895789531956L-76.96961795559496,-145.87664055234205L-78.83667436280359,-144.81141676117142zM-71.16205218493224,-148.68047082273068L-73.1252815087322,-147.8147118867184L-75.06349473484553,-146.87895789531956zM-71.16205218493224,-148.68047082273068L-75.06349473484553,-146.87895789531956L-78.83667436280359,-144.81141676117142zM-74.29231848666164,-117.77829699298339L-75.03330620337186,-116.8921779734031L-75.71269871318215,-115.99591911185124zM-78.83667436280359,-144.81141676117142L-80.65782243492983,-143.68715600248507L-82.42637046660852,-142.50794998341956zM-49.951235851232894,-128.97358008723702L-51.06034549532198,-128.96900750093266L-52.19913777658043,-128.90829601670237zM-67.18930600234073,-150.18942177722357L-69.18098044524405,-149.4730298720894L-71.16205218493224,-148.68047082273068zM-63.20333132938992,-151.38313887128874L-71.16205218493224,-148.68047082273068L-78.83667436280359,-144.81141676117142zM-78.83667436280359,-144.81141676117142L-82.42637046660852,-142.50794998341956L-85.77973547021973,-140.0019055958457zM-63.20333132938992,-151.38313887128874L-67.18930600234073,-150.18942177722357L-71.16205218493224,-148.68047082273068zM-82.42637046660852,-142.50794998341956L-84.13578796084161,-141.27804544446667L-85.77973547021973,-140.0019055958457zM-63.20333132938992,-151.38313887128874L-65.19431977885762,-150.82694145542982L-67.18930600234073,-150.18942177722357zM-75.71269871318215,-115.99591911185124L-76.32778539491717,-115.09294280013312L-76.87610169018632,-114.18667081332934zM-47.8391233548266,-128.8139692886272L-48.87610294545783,-128.9218707341437L-49.951235851232894,-128.97358008723702zM-78.83667436280359,-144.81141676117142L-85.77973547021973,-140.0019055958457L-91.58149012176871,-134.52962559595056zM-75.71269871318215,-115.99591911185124L-76.87610169018632,-114.18667081332934L-77.76368176298894,-112.37812073862625zM-85.77973547021973,-140.0019055958457L-87.35207115080459,-138.68414201902846L-88.84687759515901,-137.32954389246174zM-59.26266377399746,-152.24315073843707L-61.223674801338404,-151.8558421750438L-63.20333132938992,-151.38313887128874zM-45.895750059001806,-128.43097820798283L-47.8391233548266,-128.8139692886272L-49.951235851232894,-128.97358008723702zM-76.87610169018632,-114.18667081332934L-77.35539708350879,-113.28057781311014L-77.76368176298894,-112.37812073862625zM-68.73019276662896,-122.699461574714L-75.71269871318215,-115.99591911185124L-78.32264515343005,-105.7023711803415zM-85.77973547021973,-140.0019055958457L-88.84687759515901,-137.32954389246174L-91.58149012176871,-134.52962559595056zM-49.951235851232894,-128.97358008723702L-68.73019276662896,-122.699461574714L-78.32264515343005,-105.7023711803415zM-45.895750059001806,-128.43097820798283L-46.84436911969313,-128.6501705255016L-47.8391233548266,-128.8139692886272zM-55.42565305939609,-152.75538908908914L-59.26266377399746,-152.24315073843707L-63.20333132938992,-151.38313887128874zM-88.84687759515901,-137.32954389246174L-90.25849160218908,-135.94301856434163L-91.58149012176871,-134.52962559595056zM-48.29085307912845,-152.70399972023492L-63.20333132938992,-151.38313887128874L-78.83667436280359,-144.81141676117142zM-55.42565305939609,-152.75538908908914L-57.32758479358705,-152.54343900153907L-59.26266377399746,-152.24315073843707zM-42.63531367393772,-127.01758553116096L-45.895750059001806,-128.43097820798283L-49.951235851232894,-128.97358008723702zM-77.76368176298894,-112.37812073862625L-78.09921619072843,-111.48280848228335L-78.36053156640274,-110.59808967720149zM-44.15181322334406,-127.82944477827235L-44.99703289515266,-128.1570890867688L-45.895750059001806,-128.43097820798283zM-75.71269871318215,-115.99591911185124L-77.76368176298894,-112.37812073862625L-78.32264515343005,-105.7023711803415zM-77.76368176298894,-112.37812073862625L-78.36053156640274,-110.59808967720149L-78.65598456340743,-108.87423075875324zM-48.29085307912845,-152.70399972023492L-55.42565305939609,-152.75538908908914L-63.20333132938992,-151.38313887128874zM-91.58149012176871,-134.52962559595056L-92.81075605823564,-133.09452715042542L-93.94144163890235,-131.6430188962279zM-42.63531367393772,-127.01758553116096L-44.15181322334406,-127.82944477827235L-45.895750059001806,-128.43097820798283zM-51.74976700223154,-152.91050043873457L-53.56403452709641,-152.8779884864826L-55.42565305939609,-152.75538908908914zM-78.36053156640274,-110.59808967720149L-78.5464277045168,-109.72742431650099L-78.65598456340743,-108.87423075875324zM-91.58149012176871,-134.52962559595056L-93.94144163890235,-131.6430188962279L-95.88937195748359,-128.71224161774649zM-42.63531367393772,-127.01758553116096L-43.36350221125909,-127.44915982512234L-44.15181322334406,-127.82944477827235zM-48.29085307912845,-152.70399972023492L-51.74976700223154,-152.91050043873457L-55.42565305939609,-152.75538908908914zM-77.76368176298894,-112.37812073862625L-78.65598456340743,-108.87423075875324L-78.32264515343005,-105.7023711803415zM-93.94144163890235,-131.6430188962279L-94.96904202878788,-130.18044106157498L-95.88937195748359,-128.71224161774649zM-39.283084913528135,-121.94407519617349L-42.63531367393772,-127.01758553116096L-49.951235851232894,-128.97358008723702zM-78.65598456340743,-108.87423075875324L-78.68857557326123,-108.04186070596295L-78.64385847870217,-107.23362852609958zM-48.29085307912845,-152.70399972023492L-49.98977589549081,-152.85253227265568L-51.74976700223154,-152.91050043873457zM-78.83667436280359,-144.81141676117142L-91.58149012176871,-134.52962559595056L-99.01302542350015,-117.4275162624591zM-41.37105539354688,-126.00691938632322L-41.970240157048295,-126.53625525441697L-42.63531367393772,-127.01758553116096zM-78.65598456340743,-108.87423075875324L-78.64385847870217,-107.23362852609958L-78.32264515343005,-105.7023711803415zM-40.380231856491164,-124.8121333531438L-41.37105539354688,-126.00691938632322L-42.63531367393772,-127.01758553116096zM-48.29085307912845,-152.70399972023492L-78.83667436280359,-144.81141676117142L-99.01302542350015,-117.4275162624591zM-78.64385847870217,-107.23362852609958L-78.52179497952525,-106.45275078939923L-78.32264515343005,-105.7023711803415zM-95.88937195748359,-128.71224161774649L-96.69860336399594,-127.24391506291877L-97.39327769355694,-125.78100109297685zM-40.380231856491164,-124.8121333531438L-40.84029516275997,-125.43149344132401L-41.37105539354688,-126.00691938632322zM-45.102425752446976,-152.13650005393194L-46.65959517497713,-152.465142226425L-48.29085307912845,-152.70399972023492zM-91.58149012176871,-134.52962559595056L-95.88937195748359,-128.71224161774649L-99.01302542350015,-117.4275162624591zM-95.88937195748359,-128.71224161774649L-97.39327769355694,-125.78100109297685L-98.42709664402024,-122.89362612799906zM-39.283084913528135,-121.94407519617349L-40.380231856491164,-124.8121333531438L-42.63531367393772,-127.01758553116096zM-78.32264515343005,-105.7023711803415L-78.04697036159337,-104.98553064635362L-77.69563820737774,-104.305147300132zM-42.2348806629027,-151.21384242662384L-45.102425752446976,-152.13650005393194L-48.29085307912845,-152.70399972023492zM-39.67999100602044,-123.45099150743643L-39.992885423778624,-124.15113406115569L-40.380231856491164,-124.8121333531438zM-97.39327769355694,-125.78100109297685L-97.97032898897393,-124.32904487013624L-98.42709664402024,-122.89362612799906zM-78.32264515343005,-105.7023711803415L-77.69563820737774,-104.305147300132L-76.77099249298831,-103.06480474284592zM-78.32264515343005,-105.7023711803415L-46.93393767091009,-107.78551524010989L-49.951235851232894,-128.97358008723702zM-42.2348806629027,-151.21384242662384L-43.62553611894154,-151.71899573953024L-45.102425752446976,-152.13650005393194zM-39.283084913528135,-121.94407519617349L-39.67999100602044,-123.45099150743643L-40.380231856491164,-124.8121333531438zM-77.69563820737774,-104.305147300132L-77.26981821028602,-103.66401477564493L-76.77099249298831,-103.06480474284592zM-95.88937195748359,-128.71224161774649L-98.42709664402024,-122.89362612799906L-99.01302542350015,-117.4275162624591zM-39.283084913528135,-121.94407519617349L-39.44300575817964,-122.71436555706659L-39.67999100602044,-123.45099150743643zM-46.93393767091009,-107.78551524010989L-39.283084913528135,-121.94407519617349L-49.951235851232894,-128.97358008723702zM-78.32264515343005,-105.7023711803415L-76.77099249298831,-103.06480474284592L-74.0854850865955,-101.13460338268698zM-37.643709375834256,-148.35302562413284L-42.2348806629027,-151.21384242662384L-48.29085307912845,-152.70399972023492zM-98.42709664402024,-122.89362612799906L-98.76132516009346,-121.48027541332503L-98.97121298477121,-120.09451152001766zM-76.77099249298831,-103.06480474284592L-76.20092524641719,-102.51000284805056L-75.5616914138582,-102.00195842650305zM-39.73471200153138,-149.94717860759093L-40.93614254683284,-150.6226067032846L-42.2348806629027,-151.21384242662384zM-39.19756171741096,-120.31453212465745L-39.20109007340805,-121.14308942354916L-39.283084913528135,-121.94407519617349zM-76.77099249298831,-103.06480474284592L-75.5616914138582,-102.00195842650305L-74.0854850865955,-101.13460338268698zM-98.42709664402024,-122.89362612799906L-98.97121298477121,-120.09451152001766L-99.01302542350015,-117.4275162624591zM-39.426524417421746,-118.58777908681185L-39.19756171741096,-120.31453212465745L-39.283084913528135,-121.94407519617349zM-75.5616914138582,-102.00195842650305L-74.85566390176251,-101.54283260653116L-74.0854850865955,-101.13460338268698zM-37.643709375834256,-148.35302562413284L-39.73471200153138,-149.94717860759093L-42.2348806629027,-151.21384242662384z" style="fill:rgb(83,212,212)"/><path d="M-34.82817243064502,-144.27461042739324L-27.496966024768053,-129.04666139800267L-28.025658654342266,-130.17831576187726z" style="fill:rgb(242,182,131)"/><path d="M-78.32264515343005,-105.7023711803415L-74.0854850865955,-101.13460338268698L-66.01867564824833,-99.86865607455664zM-39.426524417421746,-118.58777908681185L-39.2727382292332,-119.46164606662802L-39.19756171741096,-120.31453212465745zM-98.97121298477121,-120.09451152001766L-99.05541448297276,-118.74180210425713L-99.01302542350015,-117.4275162624591z" style="fill:rgb(83,212,212)"/><path d="M-89.44575275224616,-97.8477728908917L-88.76991532108661,-96.79244641841746L-96.90479852491015,-111.6128032298558z" style="fill:rgb(17,63,135)"/><path d="M-40.814705427661096,-114.95309841614652L-39.426524417421746,-118.58777908681185L-39.283084913528135,-121.94407519617349zM-37.643709375834256,-148.35302562413284L-38.63565782904211,-149.18980018636023L-39.73471200153138,-149.94717860759093zM-74.0854850865955,-101.13460338268698L-73.25407883082033,-100.7790319069574L-72.36463954203965,-100.47771534487188z" style="fill:rgb(83,212,212)"/><path d="M-34.428995149655705,-143.09060789552152L-27.091482302215272,-127.8541235996657L-27.496966024768053,-129.04666139800267z" style="fill:rgb(244,177,137)"/><path d="M-39.96796703801412,-116.79106739314994L-39.658514014888496,-117.69640909317961L-39.426524417421746,-118.58777908681185zM-74.0854850865955,-101.13460338268698L-72.36463954203965,-100.47771534487188L-70.42570112537013,-100.04298355396597z" style="fill:rgb(83,212,212)"/><path d="M-88.76991532108661,-96.79244641841746L-87.9740698269338,-95.80427568106833L-96.11139362525273,-110.63509967705629z" style="fill:rgb(20,59,140)"/><path d="M-40.814705427661096,-114.95309841614652L-39.96796703801412,-116.79106739314994L-39.426524417421746,-118.58777908681185zM-78.32264515343005,-105.7023711803415L-66.01867564824833,-99.86865607455664L-46.93393767091009,-107.78551524010989zM-72.36463954203965,-100.47771534487188L-71.42061319972213,-100.2319817210848L-70.42570112537013,-100.04298355396597z" style="fill:rgb(83,212,212)"/><path d="M-34.156773356173815,-141.84925877794498L-26.811400787199435,-126.60516268955918L-27.091482302215272,-127.8541235996657z" style="fill:rgb(245,172,143)"/><path d="M-33.99943116496612,-139.21360198264298L-37.643709375834256,-148.35302562413284L-48.29085307912845,-152.70399972023492zM-46.93393767091009,-107.78551524010989L-40.814705427661096,-114.95309841614652L-39.283084913528135,-121.94407519617349zM-40.814705427661096,-114.95309841614652L-40.35382614062926,-115.87540690124295L-39.96796703801412,-116.79106739314994zM-99.01302542350015,-117.4275162624591L-98.84362138754722,-116.15694116119236L-98.54728525487624,-114.93523903624106zM-74.0854850865955,-101.13460338268698L-70.42570112537013,-100.04298355396597L-66.01867564824833,-99.86865607455664z" style="fill:rgb(83,212,212)"/><path d="M-28.025658654342266,-130.17831576187726L-35.35212170092636,-145.39684708168835L-34.82817243064502,-144.27461042739324z" style="fill:rgb(242,182,131)"/><path d="M-87.9740698269338,-95.80427568106833L-87.06083578745776,-94.88751235683866L-95.1989401297994,-109.7295188474521z" style="fill:rgb(24,55,146)"/><path d="M-35.998179446225954,-146.45316906841472L-36.763225304473046,-147.43973796341115L-37.643709375834256,-148.35302562413284zM-70.42570112537013,-100.04298355396597L-69.38381814456453,-99.91161041826813L-68.29910027375702,-99.83853494373015z" style="fill:rgb(83,212,212)"/><path d="M-96.90479852491015,-111.6128032298558L-97.5765538022265,-112.65840579579431L-89.44575275224616,-97.8477728908917z" style="fill:rgb(17,63,135)"/><path d="M-34.0131928337112,-140.55527024711722L-26.658423851674005,-125.30452353412952L-26.811400787199435,-126.60516268955918z" style="fill:rgb(246,166,149)"/><path d="M-41.95440224328668,-113.10354040187538L-41.34890513113845,-114.02788773128859L-40.814705427661096,-114.95309841614652zM-99.01302542350015,-117.4275162624591L-98.54728525487624,-114.93523903624106L-97.5765538022265,-112.65840579579431zM-70.42570112537013,-100.04298355396597L-68.29910027375702,-99.83853494373015L-66.01867564824833,-99.86865607455664z" style="fill:rgb(83,212,212)"/><path d="M-27.496966024768053,-129.04666139800267L-34.82817243064502,-144.27461042739324L-34.428995149655705,-143.09060789552152z" style="fill:rgb(244,177,137)"/><path d="M-87.06083578745776,-94.88751235683866L-86.03334690784389,-94.04618529675218L-94.17053712937432,-108.90003008763354z" style="fill:rgb(28,51,152)"/><path d="M-43.36969409181537,-111.27250403384605L-41.95440224328668,-113.10354040187538L-40.814705427661096,-114.95309841614652zM-68.29910027375702,-99.83853494373015L-67.17587735062112,-99.82415460666637L-66.01867564824833,-99.86865607455664zM-34.82817243064502,-144.27461042739324L-35.998179446225954,-146.45316906841472L-37.643709375834256,-148.35302562413284z" style="fill:rgb(83,212,212)"/><path d="M-96.11139362525273,-110.63509967705629L-96.90479852491015,-111.6128032298558L-88.76991532108661,-96.79244641841746z" style="fill:rgb(20,59,140)"/><path d="M-33.99943116496612,-139.21360198264298L-26.633751739716967,-123.95719847897725L-26.658423851674005,-125.30452353412952z" style="fill:rgb(247,161,155)"/><path d="M-43.36969409181537,-111.27250403384605L-42.62887560140997,-112.18382137997763L-41.95440224328668,-113.10354040187538zM-46.93393767091009,-107.78551524010989L-43.36969409181537,-111.27250403384605L-40.814705427661096,-114.95309841614652zM-98.54728525487624,-114.93523903624106L-98.12457453553924,-113.76744075922922L-97.5765538022265,-112.65840579579431z" style="fill:rgb(83,212,212)"/><path d="M-27.091482302215272,-127.8541235996657L-34.428995149655705,-143.09060789552152L-34.156773356173815,-141.84925877794498z" style="fill:rgb(245,172,143)"/><path d="M-86.03334690784389,-94.04618529675218L-84.89521520981674,-93.28401754102417L-93.02981022922683,-108.15034626294604z" style="fill:rgb(32,47,158)"/><path d="M-66.01867564824833,-99.86865607455664L-64.83216144590534,-99.97197150466872L-63.62114914129718,-100.13376240840259zM-45.0384114468041,-109.49002002040439L-44.17393651466317,-110.37333620905898L-43.36969409181537,-111.27250403384605zM-34.82817243064502,-144.27461042739324L-35.35212170092636,-145.39684708168835L-35.998179446225954,-146.45316906841472zM-66.01867564824833,-99.86865607455664L-63.62114914129718,-100.13376240840259L-61.145471158667796,-100.6302479691265z" style="fill:rgb(83,212,212)"/><path d="M-34.11614318502479,-137.82947158843785L-26.73806883424361,-122.56843361723313L-26.633751739716967,-123.95719847897725z" style="fill:rgb(247,155,161)"/><path d="M-95.1989401297994,-109.7295188474521L-96.11139362525273,-110.63509967705629L-87.9740698269338,-95.80427568106833z" style="fill:rgb(24,55,146)"/><path d="M-46.93393767091009,-107.78551524010989L-45.0384114468041,-109.49002002040439L-43.36969409181537,-111.27250403384605zM-63.62114914129718,-100.13376240840259L-62.39057217113649,-100.35346949162931L-61.145471158667796,-100.6302479691265zM-66.01867564824833,-99.86865607455664L-61.145471158667796,-100.6302479691265L-56.12255557289845,-102.28319279012472zM-66.01867564824833,-99.86865607455664L-56.12255557289845,-102.28319279012472L-46.93393767091009,-107.78551524010989zM-46.93393767091009,-107.78551524010989L-45.959650266142155,-108.6262284421453L-45.0384114468041,-109.49002002040439zM-99.01302542350015,-117.4275162624591L-97.5765538022265,-112.65840579579431L-94.17053712937432,-108.90003008763354z" style="fill:rgb(83,212,212)"/><path d="M-84.89521520981674,-93.28401754102417L-83.65056635295116,-92.60446275661911L-91.78085950327655,-107.48386746841024z" style="fill:rgb(37,44,163)"/><path d="M-26.811400787199435,-126.60516268955918L-34.156773356173815,-141.84925877794498L-34.0131928337112,-140.55527024711722z" style="fill:rgb(246,166,149)"/><path d="M-99.01302542350015,-117.4275162624591L-50.28628490462521,-115.99379768397199L-48.29085307912845,-152.70399972023492zM-61.145471158667796,-100.6302479691265L-59.890946214695695,-100.9630535717204L-58.63215888909442,-101.35054787196333zM-49.02562074480853,-106.18720000428547L-47.95731899762757,-106.97137476295792L-46.93393767091009,-107.78551524010989zM-61.145471158667796,-100.6302479691265L-58.63215888909442,-101.35054787196333L-56.12255557289845,-102.28319279012472zM-33.99943116496612,-139.21360198264298L-34.82817243064502,-144.27461042739324L-37.643709375834256,-148.35302562413284z" style="fill:rgb(83,212,212)"/><path d="M-34.36343601230097,-136.40831751295863L-26.97151872397206,-121.14369122791206L-26.73806883424361,-122.56843361723313z" style="fill:rgb(246,149,166)"/><path d="M-51.27933392671348,-104.72161716189791L-49.02562074480853,-106.18720000428547L-46.93393767091009,-107.78551524010989zM-56.12255557289845,-102.28319279012472L-51.27933392671348,-104.72161716189791L-46.93393767091009,-107.78551524010989z" style="fill:rgb(83,212,212)"/><path d="M-94.17053712937432,-108.90003008763354L-95.1989401297994,-109.7295188474521L-87.06083578745776,-94.88751235683866z" style="fill:rgb(28,51,152)"/><path d="M-58.63215888909442,-101.35054787196333L-57.37429917858394,-101.79118183260496L-56.12255557289845,-102.28319279012472zM-51.27933392671348,-104.72161716189791L-50.134480593419944,-105.43625071754518L-49.02562074480853,-106.18720000428547zM-56.12255557289845,-102.28319279012472L-53.6580463059614,-103.41307376905537L-51.27933392671348,-104.72161716189791zM-56.12255557289845,-102.28319279012472L-54.88209669656109,-102.82456506222611L-53.6580463059614,-103.41307376905537zM-53.6580463059614,-103.41307376905537L-52.45547279375495,-104.04629827573528L-51.27933392671348,-104.72161716189791z" style="fill:rgb(83,212,212)"/><path d="M-83.65056635295116,-92.60446275661911L-82.30398711544693,-92.01064184364246L-90.42830112641559,-106.90366968213145z" style="fill:rgb(42,41,169)"/><path d="M-97.5765538022265,-112.65840579579431L-96.90479852491015,-111.6128032298558L-96.11139362525273,-110.63509967705629z" style="fill:rgb(83,212,212)"/><path d="M-26.658423851674005,-125.30452353412952L-34.0131928337112,-140.55527024711722L-33.99943116496612,-139.21360198264298z" style="fill:rgb(247,161,155)"/><path d="M-34.74087371665772,-134.9557468864623L-27.333708592971078,-119.68859749436876L-26.97151872397206,-121.14369122791206z" style="fill:rgb(245,143,172)"/><path d="M-34.156773356173815,-141.84925877794498L-34.428995149655705,-143.09060789552152L-34.82817243064502,-144.27461042739324z" style="fill:rgb(83,212,212)"/><path d="M-93.02981022922683,-108.15034626294604L-94.17053712937432,-108.90003008763354L-86.03334690784389,-94.04618529675218z" style="fill:rgb(32,47,158)"/><path d="M-82.30398711544693,-92.01064184364246L-80.86055447903219,-91.50534508603258L-88.97720840848201,-106.41250189423607z" style="fill:rgb(48,39,174)"/><path d="M-97.5765538022265,-112.65840579579431L-96.11139362525273,-110.63509967705629L-94.17053712937432,-108.90003008763354z" style="fill:rgb(83,212,212)"/><path d="M-26.633751739716967,-123.95719847897725L-33.99943116496612,-139.21360198264298L-34.11614318502479,-137.82947158843785z" style="fill:rgb(247,155,161)"/><path d="M-35.24746582064994,-133.4776052128198L-27.823698055058287,-118.20901135782822L-27.333708592971078,-119.68859749436876z" style="fill:rgb(244,137,177)"/><path d="M-33.99943116496612,-139.21360198264298L-34.156773356173815,-141.84925877794498L-34.82817243064502,-144.27461042739324z" style="fill:rgb(83,212,212)"/><path d="M-91.78085950327655,-107.48386746841024L-93.02981022922683,-108.15034626294604L-84.89521520981674,-93.28401754102417z" style="fill:rgb(37,44,163)"/><path d="M-80.86055447903219,-91.50534508603258L-79.32579233079225,-91.09102109380824L-87.43312726690135,-106.0127507193932z" style="fill:rgb(54,37,179)"/><path d="M-26.73806883424361,-122.56843361723313L-34.11614318502479,-137.82947158843785L-34.36343601230097,-136.40831751295863z" style="fill:rgb(246,149,166)"/><path d="M-96.11139362525273,-110.63509967705629L-95.1989401297994,-109.7295188474521L-94.17053712937432,-108.90003008763354zM-50.28628490462521,-115.99379768397199L-33.99943116496612,-139.21360198264298L-48.29085307912845,-152.70399972023492z" style="fill:rgb(83,212,212)"/><path d="M-35.88166189849637,-131.97984000570037L-28.43999349170386,-116.71088895650813L-27.823698055058287,-118.20901135782822z" style="fill:rgb(242,131,182)"/><path d="M-90.42830112641559,-106.90366968213145L-91.78085950327655,-107.48386746841024L-83.65056635295116,-92.60446275661911z" style="fill:rgb(42,41,169)"/><path d="M-33.99943116496612,-139.21360198264298L-34.0131928337112,-140.55527024711722L-34.156773356173815,-141.84925877794498z" style="fill:rgb(83,212,212)"/><path d="M-79.32579233079225,-91.09102109380824L-77.7056456967866,-90.76972694306997L-85.80205093179687,-105.7064266291181z" style="fill:rgb(60,35,184)"/><path d="M-99.01302542350015,-117.4275162624591L-94.17053712937432,-108.90003008763354L-82.3049424185924,-105.38018755821058z" style="fill:rgb(83,212,212)"/><path d="M-26.97151872397206,-121.14369122791206L-34.36343601230097,-136.40831751295863L-34.74087371665772,-134.9557468864623z" style="fill:rgb(245,143,172)"/><path d="M-36.64134431769554,-130.46857866200378L-29.180541126111063,-115.20036073438881L-28.43999349170386,-116.71088895650813z" style="fill:rgb(240,125,187)"/><path d="M-77.7056456967866,-90.76972694306997L-76.0064991519948,-90.54315253638333L-84.09038479763352,-105.49516448480074z" style="fill:rgb(66,34,189)"/><path d="M-88.97720840848201,-106.41250189423607L-90.42830112641559,-106.90366968213145L-82.30398711544693,-92.01064184364246z" style="fill:rgb(48,39,174)"/><path d="M-37.52383687619865,-128.9500371324457L-30.04273518032532,-113.68364034237976L-29.180541126111063,-115.20036073438881z" style="fill:rgb(237,120,191)"/><path d="M-27.333708592971078,-119.68859749436876L-34.74087371665772,-134.9557468864623L-35.24746582064994,-133.4776052128198z" style="fill:rgb(244,137,177)"/><path d="M-94.17053712937432,-108.90003008763354L-93.02981022922683,-108.15034626294604L-91.78085950327655,-107.48386746841024z" style="fill:rgb(83,212,212)"/><path d="M-76.0064991519948,-90.54315253638333L-74.23511323253139,-90.41257801608755L-82.3049424185924,-105.38018755821058z" style="fill:rgb(73,33,193)"/><path d="M-87.43312726690135,-106.0127507193932L-88.97720840848201,-106.41250189423607L-80.86055447903219,-91.50534508603258z" style="fill:rgb(54,37,179)"/><path d="M-34.36343601230097,-136.40831751295863L-34.11614318502479,-137.82947158843785L-33.99943116496612,-139.21360198264298z" style="fill:rgb(83,212,212)"/><path d="M-38.525916197159596,-127.43048066305235L-31.02342906762912,-112.16698563475846L-30.04273518032532,-113.68364034237976z" style="fill:rgb(234,114,195)"/><path d="M-27.823698055058287,-118.20901135782822L-35.24746582064994,-133.4776052128198L-35.88166189849637,-131.97984000570037z" style="fill:rgb(242,131,182)"/><path d="M-74.23511323253139,-90.41257801608755L-72.39860755450086,-90.37887820672191L-80.45289818089401,-105.36231719879639z" style="fill:rgb(79,32,198)"/><path d="M-94.17053712937432,-108.90003008763354L-91.78085950327655,-107.48386746841024L-88.97720840848201,-106.41250189423607z" style="fill:rgb(83,212,212)"/><path d="M-85.80205093179687,-105.7064266291181L-87.43312726690135,-106.0127507193932L-79.32579233079225,-91.09102109380824z" style="fill:rgb(60,35,184)"/><path d="M-39.643799667875484,-125.91625254270342L-32.11892358629645,-110.65672714150696L-31.02342906762912,-112.16698563475846z" style="fill:rgb(230,108,199)"/><path d="M-35.24746582064994,-133.4776052128198L-34.36343601230097,-136.40831751295863L-33.99943116496612,-139.21360198264298z" style="fill:rgb(83,212,212)"/><path d="M-72.39860755450086,-90.37887820672191L-70.5044409269997,-90.44250460728182L-78.5417738275747,-105.44192585238373z" style="fill:rgb(86,32,201)"/><path d="M-28.43999349170386,-116.71088895650813L-35.88166189849637,-131.97984000570037L-36.64134431769554,-130.46857866200378z" style="fill:rgb(240,125,187)"/><path d="M-40.8731769278598,-124.41370446009286L-33.32499747616881,-109.15919823035743L-32.11892358629645,-110.65672714150696z" style="fill:rgb(226,102,203)"/><path d="M-91.78085950327655,-107.48386746841024L-90.42830112641559,-106.90366968213145L-88.97720840848201,-106.41250189423607z" style="fill:rgb(83,212,212)"/><path d="M-84.09038479763352,-105.49516448480074L-85.80205093179687,-105.7064266291181L-77.7056456967866,-90.76972694306997z" style="fill:rgb(66,34,189)"/><path d="M-70.5044409269997,-90.44250460728182L-68.56037699502971,-90.60348352153771L-76.57940358787496,-105.61898899646316z" style="fill:rgb(94,32,205)"/><path d="M-35.24746582064994,-133.4776052128198L-34.74087371665772,-134.9557468864623L-34.36343601230097,-136.40831751295863z" style="fill:rgb(83,212,212)"/><path d="M-29.180541126111063,-115.20036073438881L-36.64134431769554,-130.46857866200378L-37.52383687619865,-128.9500371324457z" style="fill:rgb(237,120,191)"/><path d="M-42.20921304746044,-122.92918742782419L-34.636910607014535,-107.68072627164953L-33.32499747616881,-109.15919823035743z" style="fill:rgb(222,96,207)"/><path d="M-99.01302542350015,-117.4275162624591L-82.3049424185924,-105.38018755821058L-50.28628490462521,-115.99379768397199zM-94.17053712937432,-108.90003008763354L-88.97720840848201,-106.41250189423607L-82.3049424185924,-105.38018755821058z" style="fill:rgb(83,212,212)"/><path d="M-68.56037699502971,-90.60348352153771L-66.5744389781462,-90.86140631701217L-74.57388250005759,-105.89304575648981z" style="fill:rgb(101,32,208)"/><path d="M-82.3049424185924,-105.38018755821058L-84.09038479763352,-105.49516448480074L-76.0064991519948,-90.54315253638333z" style="fill:rgb(73,33,193)"/><path d="M-43.646574710330974,-121.46898356137942L-36.049429766083165,-106.22756527318693L-34.636910607014535,-107.68072627164953z" style="fill:rgb(217,91,210)"/><path d="M-38.525916197159596,-127.43048066305235L-35.24746582064994,-133.4776052128198L-33.99943116496612,-139.21360198264298z" style="fill:rgb(83,212,212)"/><path d="M-30.04273518032532,-113.68364034237976L-37.52383687619865,-128.9500371324457L-38.525916197159596,-127.43048066305235z" style="fill:rgb(234,114,195)"/><path d="M-66.5744389781462,-90.86140631701217L-64.55487387994575,-91.21542554350133L-72.53355427067615,-106.26315910499511z" style="fill:rgb(108,33,211)"/><path d="M-45.17944507746068,-120.03931496682922L-37.556842908286896,-104.80590393433181L-36.049429766083165,-106.22756527318693z" style="fill:rgb(212,85,213)"/><path d="M-80.45289818089401,-105.36231719879639L-82.3049424185924,-105.38018755821058L-74.23511323253139,-90.41257801608755z" style="fill:rgb(79,32,198)"/><path d="M-64.55487387994575,-91.21542554350133L-62.510126494133125,-91.66426890047079L-70.46694883748535,-106.72802027651653z" style="fill:rgb(116,34,214)"/><path d="M-88.97720840848201,-106.41250189423607L-87.43312726690135,-106.0127507193932L-85.80205093179687,-105.7064266291181z" style="fill:rgb(83,212,212)"/><path d="M-31.02342906762912,-112.16698563475846L-38.525916197159596,-127.43048066305235L-39.643799667875484,-125.91625254270342z" style="fill:rgb(230,108,199)"/><path d="M-46.80155300613514,-118.64627291583852L-39.15298798311991,-103.42179591405636L-37.556842908286896,-104.80590393433181z" style="fill:rgb(206,80,215)"/><path d="M-62.510126494133125,-91.66426890047079L-60.44878537299452,-92.20622885902682L-68.38275798893312,-107.28581872299797z" style="fill:rgb(123,36,216)"/><path d="M-36.64134431769554,-130.46857866200378L-35.88166189849637,-131.97984000570037L-35.24746582064994,-133.4776052128198z" style="fill:rgb(83,212,212)"/><path d="M-78.5417738275747,-105.44192585238373L-80.45289818089401,-105.36231719879639L-72.39860755450086,-90.37887820672191z" style="fill:rgb(86,32,201)"/><path d="M-48.506196976909074,-117.2958365629416L-40.831276173244746,-102.08117778767469L-39.15298798311991,-103.42179591405636z" style="fill:rgb(200,75,217)"/><path d="M-60.44878537299452,-92.20622885902682L-58.37954699527865,-92.83916503066243L-66.28976868436217,-107.93437064636325z" style="fill:rgb(131,38,218)"/><path d="M-88.97720840848201,-106.41250189423607L-85.80205093179687,-105.7064266291181L-82.3049424185924,-105.38018755821058z" style="fill:rgb(83,212,212)"/><path d="M-32.11892358629645,-110.65672714150696L-39.643799667875484,-125.91625254270342L-40.8731769278598,-124.41370446009286z" style="fill:rgb(226,102,203)"/><path d="M-50.28628490462521,-115.99379768397199L-42.58473140289832,-100.78979548798895L-40.831276173244746,-102.08117778767469z" style="fill:rgb(194,70,219)"/><path d="M-58.37954699527865,-92.83916503066243L-56.31117074375664,-93.56052492013866L-64.19685374255855,-108.67105035333003z" style="fill:rgb(138,40,220)"/><path d="M-52.13435261058547,-114.74572716468245L-44.40601060945325,-99.5531756560305L-42.58473140289832,-100.78979548798895z" style="fill:rgb(188,65,220)"/><path d="M-76.57940358787496,-105.61898899646316L-78.5417738275747,-105.44192585238373L-70.5044409269997,-90.44250460728182z" style="fill:rgb(94,32,205)"/><path d="M-56.31117074375664,-93.56052492013866L-54.252436299361534,-94.36734985238338L-62.11289833377586,-109.49282627848208z" style="fill:rgb(146,43,221)"/><path d="M-38.525916197159596,-127.43048066305235L-36.64134431769554,-130.46857866200378L-35.24746582064994,-133.4776052128198z" style="fill:rgb(83,212,212)"/><path d="M-46.28745068255157,-98.37662018300794L-44.40601060945325,-99.5531756560305L-52.13435261058547,-114.74572716468245z" style="fill:rgb(181,61,221)"/><path d="M-54.252436299361534,-94.36734985238338L-52.21207753716193,-95.25627718758605L-60.04676903423089,-110.39628746531505z" style="fill:rgb(153,46,222)"/><path d="M-48.22110688635084,-97.26517833146255L-46.28745068255157,-98.37662018300794L-54.0426290165598,-113.55700437345988z" style="fill:rgb(175,57,222)"/><path d="M-52.21207753716193,-95.25627718758605L-50.19878340229882,-96.2235886805145L-58.00724848712241,-111.37762685106432z" style="fill:rgb(160,49,222)"/><path d="M-50.19878340229882,-96.2235886805145L-48.22110688635084,-97.26517833146255L-56.003033387071625,-112.43269305848717z" style="fill:rgb(168,53,222)"/><path d="M-33.32499747616881,-109.15919823035743L-40.8731769278598,-124.41370446009286L-42.20921304746044,-122.92918742782419z" style="fill:rgb(222,96,207)"/><path d="M-85.80205093179687,-105.7064266291181L-84.09038479763352,-105.49516448480074L-82.3049424185924,-105.38018755821058z" style="fill:rgb(83,212,212)"/><path d="M-74.57388250005759,-105.89304575648981L-76.57940358787496,-105.61898899646316L-68.56037699502971,-90.60348352153771z" style="fill:rgb(101,32,208)"/><path d="M-50.28628490462521,-115.99379768397199L-38.525916197159596,-127.43048066305235L-33.99943116496612,-139.21360198264298z" style="fill:rgb(83,212,212)"/><path d="M-34.636910607014535,-107.68072627164953L-42.20921304746044,-122.92918742782419L-43.646574710330974,-121.46898356137942z" style="fill:rgb(217,91,210)"/><path d="M-38.525916197159596,-127.43048066305235L-37.52383687619865,-128.9500371324457L-36.64134431769554,-130.46857866200378z" style="fill:rgb(83,212,212)"/><path d="M-72.53355427067615,-106.26315910499511L-74.57388250005759,-105.89304575648981L-66.5744389781462,-90.86140631701217z" style="fill:rgb(108,33,211)"/><path d="M-36.049429766083165,-106.22756527318693L-43.646574710330974,-121.46898356137942L-45.17944507746068,-120.03931496682922z" style="fill:rgb(212,85,213)"/><path d="M-70.46694883748535,-106.72802027651653L-72.53355427067615,-106.26315910499511L-64.55487387994575,-91.21542554350133z" style="fill:rgb(116,34,214)"/><path d="M-37.556842908286896,-104.80590393433181L-45.17944507746068,-120.03931496682922L-46.80155300613514,-118.64627291583852z" style="fill:rgb(206,80,215)"/><path d="M-82.3049424185924,-105.38018755821058L-80.45289818089401,-105.36231719879639L-78.5417738275747,-105.44192585238373z" style="fill:rgb(83,212,212)"/><path d="M-68.38275798893312,-107.28581872299797L-70.46694883748535,-106.72802027651653L-62.510126494133125,-91.66426890047079z" style="fill:rgb(123,36,216)"/><path d="M-39.15298798311991,-103.42179591405636L-46.80155300613514,-118.64627291583852L-48.506196976909074,-117.2958365629416z" style="fill:rgb(200,75,217)"/><path d="M-40.8731769278598,-124.41370446009286L-39.643799667875484,-125.91625254270342L-38.525916197159596,-127.43048066305235z" style="fill:rgb(83,212,212)"/><path d="M-66.28976868436217,-107.93437064636325L-68.38275798893312,-107.28581872299797L-60.44878537299452,-92.20622885902682z" style="fill:rgb(131,38,218)"/><path d="M-40.831276173244746,-102.08117778767469L-48.506196976909074,-117.2958365629416L-50.28628490462521,-115.99379768397199z" style="fill:rgb(194,70,219)"/><path d="M-82.3049424185924,-105.38018755821058L-78.5417738275747,-105.44192585238373L-74.57388250005759,-105.89304575648981z" style="fill:rgb(83,212,212)"/><path d="M-64.19685374255855,-108.67105035333003L-66.28976868436217,-107.93437064636325L-58.37954699527865,-92.83916503066243z" style="fill:rgb(138,40,220)"/><path d="M-42.58473140289832,-100.78979548798895L-50.28628490462521,-115.99379768397199L-52.13435261058547,-114.74572716468245z" style="fill:rgb(188,65,220)"/><path d="M-62.11289833377586,-109.49282627848208L-64.19685374255855,-108.67105035333003L-56.31117074375664,-93.56052492013866z" style="fill:rgb(146,43,221)"/><path d="M-43.646574710330974,-121.46898356137942L-40.8731769278598,-124.41370446009286L-38.525916197159596,-127.43048066305235z" style="fill:rgb(83,212,212)"/><path d="M-52.13435261058547,-114.74572716468245L-54.0426290165598,-113.55700437345988L-46.28745068255157,-98.37662018300794z" style="fill:rgb(181,61,221)"/><path d="M-60.04676903423089,-110.39628746531505L-62.11289833377586,-109.49282627848208L-54.252436299361534,-94.36734985238338z" style="fill:rgb(153,46,222)"/><path d="M-54.0426290165598,-113.55700437345988L-56.003033387071625,-112.43269305848717L-48.22110688635084,-97.26517833146255z" style="fill:rgb(175,57,222)"/><path d="M-58.00724848712241,-111.37762685106432L-60.04676903423089,-110.39628746531505L-52.21207753716193,-95.25627718758605z" style="fill:rgb(160,49,222)"/><path d="M-56.003033387071625,-112.43269305848717L-58.00724848712241,-111.37762685106432L-50.19878340229882,-96.2235886805145z" style="fill:rgb(168,53,222)"/><path d="M-78.5417738275747,-105.44192585238373L-76.57940358787496,-105.61898899646316L-74.57388250005759,-105.89304575648981zM-82.3049424185924,-105.38018755821058L-74.57388250005759,-105.89304575648981L-66.28976868436217,-107.93437064636325zM-43.646574710330974,-121.46898356137942L-42.20921304746044,-122.92918742782419L-40.8731769278598,-124.41370446009286zM-50.28628490462521,-115.99379768397199L-43.646574710330974,-121.46898356137942L-38.525916197159596,-127.43048066305235zM-82.3049424185924,-105.38018755821058L-66.28976868436217,-107.93437064636325L-50.28628490462521,-115.99379768397199zM-74.57388250005759,-105.89304575648981L-72.53355427067615,-106.26315910499511L-70.46694883748535,-106.72802027651653zM-46.80155300613514,-118.64627291583852L-45.17944507746068,-120.03931496682922L-43.646574710330974,-121.46898356137942zM-74.57388250005759,-105.89304575648981L-70.46694883748535,-106.72802027651653L-66.28976868436217,-107.93437064636325zM-50.28628490462521,-115.99379768397199L-46.80155300613514,-118.64627291583852L-43.646574710330974,-121.46898356137942zM-70.46694883748535,-106.72802027651653L-68.38275798893312,-107.28581872299797L-66.28976868436217,-107.93437064636325zM-50.28628490462521,-115.99379768397199L-48.506196976909074,-117.2958365629416L-46.80155300613514,-118.64627291583852zM-66.28976868436217,-107.93437064636325L-64.19685374255855,-108.67105035333003L-62.11289833377586,-109.49282627848208zM-66.28976868436217,-107.93437064636325L-58.00724848712241,-111.37762685106432L-50.28628490462521,-115.99379768397199zM-54.0426290165598,-113.55700437345988L-52.13435261058547,-114.74572716468245L-50.28628490462521,-115.99379768397199zM-66.28976868436217,-107.93437064636325L-62.11289833377586,-109.49282627848208L-58.00724848712241,-111.37762685106432zM-58.00724848712241,-111.37762685106432L-54.0426290165598,-113.55700437345988L-50.28628490462521,-115.99379768397199zM-62.11289833377586,-109.49282627848208L-60.04676903423089,-110.39628746531505L-58.00724848712241,-111.37762685106432zM-58.00724848712241,-111.37762685106432L-56.003033387071625,-112.43269305848717L-54.0426290165598,-113.55700437345988z" style="fill:rgb(83,212,212)"/></svg>
