<?xml version="1.0" encoding="UTF-8"?>
<!-- Generated by jsxcad -->
<!DOCTYPE svg PUBLIC "-//W3C//DTD SVG 1.1 Tiny//EN" "http://www.w3.org/Graphics/SVG/1.1/DTD/svg11-tiny.dtd">
<svg baseProfile="tiny" height="7.16843mm" width="6.17647mm" viewBox="-0.00000 0.96897 6.17647 7.16843" version="1.1" stroke="black" stroke-width=".1" fill="none" xmlns="http://www.w3.org/2000/svg">
<path fill="#000000" stroke="#000000" d="M5.86171 5.45126 L5.17420 6.36100 L4.20406 6.96069 L3.08696 7.16897 L1.96985 6.96069 L0.99972 6.36100 L0.31220 5.45126 L0.00034 4.35672 L0.10537 3.22037 L0.61530 2.19789 L1.45782 1.43156 L2.51516 1.02216 L3.65875 1.02216 L4.71610 1.43156 L5.55861 2.19789 L6.06855 3.22037 L6.17357 4.35672 z M4.83696 4.06897 L4.60194 3.19299 L3.96293 2.55398 L3.08696 2.31897 L2.21099 2.55398 L1.57197 3.19299 L1.33696 4.06897 L1.57197 4.94494 L2.21099 5.58395 L3.08696 5.81897 L3.96293 5.58395 L4.60194 4.94494 z"/>
<path fill="#000000" stroke="#000000" d="M4.60194 4.94494 L3.96293 5.58395 L3.08696 5.81897 L2.21099 5.58395 L1.57197 4.94494 L1.33696 4.06897 L1.57197 3.19299 L2.21099 2.55398 L3.08696 2.31897 L3.96293 2.55398 L4.60194 3.19299 L4.83696 4.06897 z"/>
<path stroke="#000000" d="M 0.00000 0.96897 L 6.17647 0.96897 L 6.17647 7.16897 L 0.00000 7.16897 z"/>
<path stroke="#000000" d="M 0.44286 8.05436 L 0.41518 8.10972 L 0.33214 8.13740 L 0.27679 8.13740 L 0.19375 8.10972 L 0.13839 8.02668 L 0.11071 7.88829 L 0.11071 7.74990 L 0.13839 7.63918 L 0.19375 7.58382 L 0.27679 7.55615 L 0.30446 7.55615 L 0.38750 7.58382 L 0.44286 7.63918 L 0.47054 7.72222 L 0.47054 7.74990 L 0.44286 7.83293 L 0.38750 7.88829 L 0.30446 7.91597 L 0.27679 7.91597 L 0.19375 7.88829 L 0.13839 7.83293 L 0.11071 7.74990"/>
<path stroke="#000000" d="M 0.69196 7.61150 L 0.66429 7.58382 L 0.69196 7.55615 L 0.71964 7.58382 z"/>
<path stroke="#000000" d="M 0.99643 8.02668 L 1.05179 8.05436 L 1.13482 8.13740 L 1.13482 7.55615"/>
<path stroke="#000000" d="M 1.85446 8.13740 L 1.57768 7.55615 M 1.46696 8.13740 z"/>
<path stroke="#000000" d=""/>
<path stroke="#000000" d="M 2.46339 7.94365 L 2.76786 7.55615 M 2.76786 7.94365 L 2.46339 7.55615"/>
<path stroke="#000000" d=""/>
<path stroke="#000000" d="M 3.73661 8.05436 L 3.70893 8.10972 L 3.62589 8.13740 L 3.57054 8.13740 L 3.48750 8.10972 L 3.43214 8.02668 L 3.40446 7.88829 L 3.40446 7.74990 L 3.43214 7.63918 L 3.48750 7.58382 L 3.57054 7.55615 L 3.59821 7.55615 L 3.68125 7.58382 L 3.73661 7.63918 L 3.76429 7.72222 L 3.76429 7.74990 L 3.73661 7.83293 L 3.68125 7.88829 L 3.59821 7.91597 L 3.57054 7.91597 L 3.48750 7.88829 L 3.43214 7.83293 L 3.40446 7.74990"/>
<path stroke="#000000" d="M 3.98571 7.61150 L 3.95804 7.58382 L 3.98571 7.55615 L 4.01339 7.58382 z"/>
<path stroke="#000000" d="M 4.23482 7.99900 L 4.23482 8.02668 L 4.26250 8.08204 L 4.29018 8.10972 L 4.34554 8.13740 L 4.45625 8.13740 L 4.51161 8.10972 L 4.53929 8.08204 L 4.56696 8.02668 L 4.56696 7.97132 L 4.53929 7.91597 L 4.48393 7.83293 L 4.20714 7.55615 L 4.59464 7.55615"/>
</svg>