<?xml version="1.0" encoding="UTF-8"?>
<!-- Generated by jsxcad -->
<!DOCTYPE svg PUBLIC "-//W3C//DTD SVG 1.1 Tiny//EN" "http://www.w3.org/Graphics/SVG/1.1/DTD/svg11-tiny.dtd">
<svg baseProfile="tiny" height="25.784241517499353mm" width="6.144642857142861mm" viewBox="-3.044642857142859 -32.98629441624367 6.144642857142861 25.784241517499353" version="1.1" stroke="black" stroke-width=".1" fill="none" xmlns="http://www.w3.org/2000/svg">
<path fill="#3c3c3c" stroke="#3c3c3c" d="M2.893333333333334 8.591976875352508 L2.8933333333333335 9.757865200225606 L3.1000000000000005 10.549999999999997 L3.1 9.384111675126903 z"/>
<path fill="#3c3c3c" stroke="#3c3c3c" d="M2.291304347826088 7.904704285208357 L2.291304347826089 9.070592610081453 L2.893333333333335 9.757865200225604 L2.893333333333334 8.59197687535251 z"/>
<path fill="#3c3c3c" stroke="#3c3c3c" d="M0.2883720930232557 7.202052898744319 L0.2883720930232557 8.367941223617416 L1.3839285714285712 8.587301629708787 L1.3839285714285712 7.421413304835689 z"/>
<path fill="#3c3c3c" stroke="#3c3c3c" d="M-0.8454545454545453 7.274877001171408 L-0.8454545454545453 8.440765326044506 L0.2883720930232558 8.36794122361741 L0.2883720930232558 7.202052898744314 z"/>
<path fill="#3c3c3c" stroke="#3c3c3c" d="M-1.8706896551724135 7.635586699036265 L-1.8706896551724135 8.801475023909358 L-0.8454545454545452 8.440765326044506 L-0.8454545454545452 7.274877001171414 z"/>
<path fill="#3c3c3c" stroke="#3c3c3c" d="M-2.6350000000000016 8.229583222014426 L-2.6350000000000007 9.395471546887523 L-1.8706896551724148 8.801475023909363 L-1.870689655172416 7.635586699036269 z"/>
<path fill="#3c3c3c" stroke="#3c3c3c" d="M-3.044642857142858 8.980026716537536 L-3.0446428571428577 10.145915041410632 L-2.635000000000001 9.395471546887523 L-2.6350000000000016 8.229583222014424 z"/>
<path fill="#3c3c3c" stroke="#3c3c3c" d="M-3.0446428571428568 9.78819663371627 L-3.0446428571428568 10.954084958589366 L-3.0446428571428568 10.145915041410632 L-3.0446428571428568 8.980026716537536 z"/>
<path fill="#3c3c3c" stroke="#3c3c3c" d="M-2.634999999999999 10.53864012823938 L-2.6349999999999993 11.704528453112474 L-3.0446428571428554 10.954084958589364 L-3.044642857142855 9.788196633716268 z"/>
<path fill="#3c3c3c" stroke="#3c3c3c" d="M-1.870689655172413 11.132636651217537 L-1.8706896551724133 12.298524976090635 L-2.634999999999999 11.704528453112477 L-2.634999999999999 10.53864012823938 z"/>
<path fill="#3c3c3c" stroke="#3c3c3c" d="M-0.8454545454545452 11.493346349082387 L-0.8454545454545452 12.65923467395548 L-1.8706896551724135 12.29852497609063 L-1.8706896551724135 11.132636651217537 z"/>
<path fill="#3c3c3c" stroke="#3c3c3c" d="M0.2883720930232558 11.566170451509478 L0.2883720930232558 12.732058776382576 L-0.8454545454545453 12.659234673955481 L-0.8454545454545453 11.493346349082383 z"/>
<path fill="#3c3c3c" stroke="#3c3c3c" d="M1.3839285714285712 11.34681004541811 L1.3839285714285712 12.512698370291208 L0.2883720930232557 12.732058776382578 L0.2883720930232557 11.56617045150948 z"/>
<path fill="#3c3c3c" stroke="#3c3c3c" d="M2.2913043478260833 10.863519065045445 L2.291304347826085 12.029407389918546 L1.3839285714285683 12.512698370291208 L1.383928571428569 11.346810045418113 z"/>
<path fill="#3c3c3c" stroke="#3c3c3c" d="M1.3839285714285778 7.421413304835693 L1.3839285714285723 8.587301629708788 L2.291304347826089 9.070592610081452 L2.2913043478260904 7.904704285208359 z"/>
<path fill="#3c3c3c" stroke="#3c3c3c" d="M2.8933333333333326 10.176246474901296 L2.8933333333333318 11.342134799774392 L2.291304347826086 12.029407389918545 L2.291304347826083 10.863519065045447 z"/>
<path fill="#3c3c3c" stroke="#3c3c3c" d="M3.0999999999999996 9.384111675126903 L3.0999999999999988 10.549999999999997 L2.893333333333333 11.342134799774392 L2.893333333333332 10.176246474901296 z"/>
<path fill="#3c3c3c" stroke="#3c3c3c" d="M2.893333333333333 8.59197687535251 L3.0999999999999996 9.384111675126901 L2.893333333333333 10.176246474901296 L2.291304347826087 10.863519065045447 L1.3839285714285714 11.346810045418112 L0.2883720930232558 11.566170451509482 L-0.8454545454545453 11.493346349082389 L-1.8706896551724137 11.132636651217537 L-2.635 10.53864012823938 L-3.0446428571428568 9.78819663371627 L-3.0446428571428568 8.980026716537536 L-2.635 8.229583222014424 L-1.8706896551724137 7.635586699036268 L-0.8454545454545453 7.274877001171416 L0.2883720930232558 7.202052898744322 L1.3839285714285714 7.421413304835693 L2.291304347826087 7.904704285208357 z"/>
<path fill="#3c3c3c" stroke="#3c3c3c" d="M2.893333333333333 9.757865200225606 L2.291304347826087 9.070592610081453 L1.3839285714285714 8.587301629708788 L0.2883720930232558 8.367941223617418 L-0.8454545454545453 8.440765326044511 L-1.8706896551724137 8.801475023909363 L-2.635 9.39547154688752 L-3.0446428571428568 10.145915041410632 L-3.0446428571428568 10.954084958589364 L-2.635 11.704528453112475 L-1.8706896551724137 12.298524976090633 L-0.8454545454545453 12.659234673955483 L0.2883720930232558 12.73205877638258 L1.3839285714285714 12.512698370291208 L2.291304347826087 12.029407389918545 L2.893333333333333 11.342134799774392 L3.0999999999999996 10.549999999999999 z"/>
<path fill="#3c3c3c" stroke="#3c3c3c" d="M1.5166666666666677 9.930837563451774 L1.516666666666667 31.12880710659898 L1.7499999999999996 31.747969543147203 L1.75 10.549999999999999 z"/>
<path fill="#3c3c3c" stroke="#3c3c3c" d="M-0.8749999999999999 9.476785109983075 L-0.8749999999999999 30.67475465313027 L0 30.509644670050747 L0 9.311675126903548 z"/>
<path fill="#3c3c3c" stroke="#3c3c3c" d="M0.8750000000000027 9.476785109983078 L0.8750000000000034 30.674754653130282 L1.5166666666666702 31.12880710659898 L1.5166666666666695 9.930837563451776 z"/>
<path fill="#3c3c3c" stroke="#3c3c3c" d="M0 9.311675126903548 L0 30.509644670050747 L0.8749999999999999 30.67475465313027 L0.8749999999999999 9.476785109983075 z"/>
<path fill="#3c3c3c" stroke="#3c3c3c" d="M-1.5166666666666695 9.930837563451776 L-1.5166666666666702 31.12880710659898 L-0.8750000000000034 30.674754653130282 L-0.8750000000000027 9.476785109983078 z"/>
<path fill="#3c3c3c" stroke="#3c3c3c" d="M-1.75 10.549999999999999 L-1.7499999999999996 31.747969543147203 L-1.516666666666667 31.12880710659898 L-1.5166666666666677 9.930837563451774 z"/>
<path fill="#3c3c3c" stroke="#3c3c3c" d="M0 11.788324873096439 L0 32.986294416243645 L-0.8749999999999999 32.82118443316412 L-0.8749999999999999 11.623214890016913 z"/>
<path fill="#3c3c3c" stroke="#3c3c3c" d="M0.8749999999999999 11.623214890016913 L0.8749999999999999 32.82118443316412 L0 32.986294416243645 L0 11.788324873096439 z"/>
<path fill="#3c3c3c" stroke="#3c3c3c" d="M-1.5166666666666657 11.169162436548222 L-1.516666666666666 32.36713197969543 L-1.7500000000000002 31.747969543147203 L-1.7499999999999998 10.549999999999999 z"/>
<path fill="#3c3c3c" stroke="#3c3c3c" d="M-0.874999999999998 11.62321489001692 L-0.8749999999999934 32.82118443316412 L-1.51666666666666 32.36713197969542 L-1.5166666666666642 11.169162436548223 z"/>
<path fill="#3c3c3c" stroke="#3c3c3c" d="M1.5166666666666642 11.169162436548223 L1.51666666666666 32.36713197969542 L0.8749999999999934 32.82118443316412 L0.874999999999998 11.62321489001692 z"/>
<path fill="#3c3c3c" stroke="#3c3c3c" d="M1.7499999999999998 10.549999999999999 L1.7500000000000002 31.747969543147203 L1.516666666666666 32.36713197969543 L1.5166666666666657 11.169162436548222 z"/>
<path fill="#3c3c3c" stroke="#3c3c3c" d="M1.5166666666666666 9.930837563451774 L1.75 10.549999999999997 L1.5166666666666666 11.169162436548222 L0.875 11.623214890016918 L0 11.788324873096444 L-0.875 11.623214890016918 L-1.5166666666666666 11.169162436548222 L-1.75 10.549999999999997 L-1.5166666666666666 9.930837563451774 L-0.875 9.476785109983076 L0 9.311675126903552 L0.875 9.476785109983076 z"/>
<path fill="#3c3c3c" stroke="#3c3c3c" d="M1.75 31.747969543147203 L1.5166666666666666 31.12880710659898 L0.875 30.674754653130282 L0 30.509644670050754 L-0.875 30.674754653130282 L-1.5166666666666666 31.12880710659898 L-1.75 31.747969543147203 L-1.5166666666666666 32.36713197969542 L-0.875 32.82118443316412 L0 32.986294416243645 L0.875 32.82118443316412 L1.5166666666666666 32.36713197969542 z"/>
</svg>