<?xml version="1.0" encoding="UTF-8"?>
<!-- Generated by jsxcad -->
<!DOCTYPE svg PUBLIC "-//W3C//DTD SVG 1.1 Tiny//EN" "http://www.w3.org/Graphics/SVG/1.1/DTD/svg11-tiny.dtd">
<svg baseProfile="tiny" height="5.700000000000004mm" width="5.700000000000004mm" viewBox="-2.850000000000002 -2.850000000000002 2.850000000000002 2.850000000000002" version="1.1" stroke="black" stroke-width=".1" fill="none" xmlns="http://www.w3.org/2000/svg">
<path fill="#000000" stroke="#000000" d="M1.745121688784978e-16 2.8500000000000036 L1.745121688784978e-16 2.8500000000000036 L-1.090647782240505 3.0669433323428357 L-1.090647782240505 3.0669433323428357 z"/>
<path fill="#000000" stroke="#000000" d="M1.0906477822405058 3.066943332342836 L1.0906477822405058 3.066943332342836 L1.745121688784978e-16 2.850000000000003 L1.745121688784978e-16 2.850000000000003 z"/>
<path fill="#000000" stroke="#000000" d="M2.01525432638166 3.684745673618343 L2.01525432638166 3.684745673618343 L1.0906477822405058 3.066943332342836 L1.0906477822405058 3.066943332342836 z"/>
<path fill="#000000" stroke="#000000" d="M2.6330566676571667 4.609352217759497 L2.6330566676571667 4.609352217759497 L2.01525432638166 3.6847456736183424 L2.01525432638166 3.6847456736183424 z"/>
<path fill="#000000" stroke="#000000" d="M2.8499999999999996 5.700000000000003 L2.8499999999999996 5.700000000000003 L2.6330566676571667 4.609352217759497 L2.6330566676571667 4.609352217759497 z"/>
<path fill="#000000" stroke="#000000" d="M2.633056667657167 6.790647782240509 L2.633056667657167 6.790647782240509 L2.85 5.700000000000003 L2.85 5.700000000000003 z"/>
<path fill="#000000" stroke="#000000" d="M2.015254326381661 7.715254326381663 L2.015254326381661 7.715254326381663 L2.633056667657167 6.790647782240509 L2.633056667657167 6.790647782240509 z"/>
<path fill="#000000" stroke="#000000" d="M1.0906477822405058 8.33305666765717 L1.0906477822405058 8.33305666765717 L2.01525432638166 7.715254326381664 L2.01525432638166 7.715254326381664 z"/>
<path fill="#000000" stroke="#000000" d="M1.745121688784978e-16 8.550000000000002 L1.745121688784978e-16 8.550000000000002 L1.0906477822405058 8.33305666765717 L1.0906477822405058 8.33305666765717 z"/>
<path fill="#000000" stroke="#000000" d="M-1.0906477822405056 8.33305666765717 L-1.0906477822405056 8.33305666765717 L1.745121688784978e-16 8.550000000000002 L1.745121688784978e-16 8.550000000000002 z"/>
<path fill="#000000" stroke="#000000" d="M-2.01525432638166 7.715254326381664 L-2.01525432638166 7.715254326381664 L-1.0906477822405056 8.33305666765717 L-1.0906477822405056 8.33305666765717 z"/>
<path fill="#000000" stroke="#000000" d="M-2.6330566676571676 4.609352217759498 L-2.6330566676571676 4.609352217759498 L-2.8499999999999996 5.700000000000004 L-2.8499999999999996 5.700000000000004 z"/>
<path fill="#000000" stroke="#000000" d="M-2.633056667657167 6.79064778224051 L-2.633056667657167 6.79064778224051 L-2.015254326381661 7.715254326381663 L-2.015254326381661 7.715254326381663 z"/>
<path fill="#000000" stroke="#000000" d="M-2.85 5.700000000000003 L-2.85 5.700000000000003 L-2.633056667657167 6.79064778224051 L-2.633056667657167 6.79064778224051 z"/>
<path fill="#000000" stroke="#000000" d="M-1.090647782240505 3.0669433323428357 L-1.090647782240505 3.0669433323428357 L-2.0152543263816605 3.684745673618343 L-2.0152543263816605 3.684745673618343 z"/>
<path fill="#000000" stroke="#000000" d="M-2.0152543263816605 3.6847456736183424 L-2.0152543263816605 3.6847456736183424 L-2.6330566676571676 4.609352217759499 L-2.6330566676571676 4.609352217759499 z"/>
<path fill="#000000" stroke="#000000" d="M1.7451216887849783e-16 2.850000000000003 L-1.0906477822405052 3.0669433323428357 L-2.015254326381661 3.684745673618343 L-2.633056667657168 4.609352217759499 L-2.85 5.700000000000003 L-2.633056667657167 6.790647782240509 L-2.0152543263816605 7.715254326381662 L-1.0906477822405058 8.33305666765717 L1.7451216887849783e-16 8.550000000000002 L1.090647782240506 8.33305666765717 L2.0152543263816605 7.715254326381662 L2.633056667657167 6.790647782240509 L2.85 5.700000000000003 L2.633056667657167 4.609352217759497 L2.0152543263816605 3.684745673618343 L1.090647782240506 3.066943332342836 z"/>
<path fill="#000000" stroke="#000000" d="M1.7451216887849783e-16 2.850000000000003 L1.090647782240506 3.066943332342836 L2.0152543263816605 3.684745673618343 L2.633056667657167 4.609352217759497 L2.85 5.700000000000003 L2.633056667657167 6.790647782240509 L2.0152543263816605 7.715254326381662 L1.090647782240506 8.33305666765717 L1.7451216887849783e-16 8.550000000000002 L-1.0906477822405058 8.33305666765717 L-2.0152543263816605 7.715254326381662 L-2.633056667657167 6.790647782240509 L-2.85 5.700000000000003 L-2.633056667657168 4.609352217759499 L-2.015254326381661 3.684745673618343 L-1.0906477822405052 3.0669433323428357 z"/>
<path fill="#000000" stroke="#000000" d="M0.875 4.1844555433772355 L0.875 4.1844555433772355 L1.0715659492539339e-16 3.9500000000000033 L1.0715659492539339e-16 3.9500000000000033 z"/>
<path fill="#000000" stroke="#000000" d="M1.5155444566227674 4.825000000000003 L1.5155444566227674 4.825000000000003 L0.8749999999999999 4.1844555433772355 L0.8749999999999999 4.1844555433772355 z"/>
<path fill="#000000" stroke="#000000" d="M1.7499999999999998 5.700000000000003 L1.7499999999999998 5.700000000000003 L1.5155444566227676 4.825000000000004 L1.5155444566227676 4.825000000000004 z"/>
<path fill="#000000" stroke="#000000" d="M1.0715659492539339e-16 7.450000000000004 L1.0715659492539339e-16 7.450000000000004 L0.875 7.215544456622771 L0.875 7.215544456622771 z"/>
<path fill="#000000" stroke="#000000" d="M1.5155444566227678 6.575000000000003 L1.5155444566227678 6.575000000000003 L1.75 5.700000000000003 L1.75 5.700000000000003 z"/>
<path fill="#000000" stroke="#000000" d="M0.8750000000000011 7.21554445662277 L0.8750000000000011 7.21554445662277 L1.5155444566227685 6.575000000000002 L1.5155444566227685 6.575000000000002 z"/>
<path fill="#000000" stroke="#000000" d="M-0.8749999999999994 7.215544456622771 L-0.8749999999999994 7.215544456622771 L1.0715659492539338e-16 7.450000000000003 L1.0715659492539338e-16 7.450000000000003 z"/>
<path fill="#000000" stroke="#000000" d="M-1.5155444566227674 4.825000000000003 L-1.5155444566227674 4.825000000000003 L-1.7499999999999998 5.700000000000003 L-1.7499999999999998 5.700000000000003 z"/>
<path fill="#000000" stroke="#000000" d="M-1.5155444566227676 6.575000000000003 L-1.5155444566227676 6.575000000000003 L-0.8749999999999994 7.215544456622771 L-0.8749999999999994 7.215544456622771 z"/>
<path fill="#000000" stroke="#000000" d="M-1.75 5.700000000000003 L-1.75 5.700000000000003 L-1.5155444566227678 6.575000000000003 L-1.5155444566227678 6.575000000000003 z"/>
<path fill="#000000" stroke="#000000" d="M-0.8750000000000003 4.1844555433772355 L-0.8750000000000003 4.1844555433772355 L-1.5155444566227665 4.825000000000002 L-1.5155444566227665 4.825000000000002 z"/>
<path fill="#000000" stroke="#000000" d="M1.0715659492539339e-16 3.9500000000000037 L1.0715659492539339e-16 3.9500000000000037 L-0.8750000000000007 4.1844555433772355 L-0.8750000000000007 4.1844555433772355 z"/>
<path fill="#000000" stroke="#000000" d="M0.8750000000000002 4.1844555433772355 L1.071565949253934e-16 3.9500000000000033 L-0.8750000000000008 4.1844555433772355 L-1.5155444566227676 4.825000000000003 L-1.75 5.700000000000004 L-1.5155444566227678 6.575000000000003 L-0.8749999999999996 7.21554445662277 L1.071565949253934e-16 7.450000000000002 L0.8750000000000002 7.21554445662277 L1.5155444566227678 6.575000000000003 L1.75 5.700000000000003 L1.5155444566227678 4.825000000000003 z"/>
<path fill="#000000" stroke="#000000" d="M1.071565949253934e-16 3.9500000000000033 L0.8750000000000002 4.1844555433772355 L1.5155444566227678 4.825000000000003 L1.75 5.700000000000003 L1.5155444566227678 6.575000000000003 L0.8750000000000002 7.21554445662277 L1.071565949253934e-16 7.450000000000002 L-0.8749999999999996 7.21554445662277 L-1.5155444566227678 6.575000000000003 L-1.75 5.700000000000004 L-1.5155444566227676 4.825000000000003 L-0.8750000000000008 4.1844555433772355 z"/>
</svg>