<?xml version="1.0" encoding="UTF-8"?>
<!-- Generated by jsxcad -->
<!DOCTYPE svg PUBLIC "-//W3C//DTD SVG 1.1 Tiny//EN" "http://www.w3.org/Graphics/SVG/1.1/DTD/svg11-tiny.dtd">
<svg baseProfile="tiny" height="5.700000000000004mm" width="4.9363448015713045mm" viewBox="-2.4681724007856523 -2.850000000000002 2.4681724007856523 2.850000000000002" version="1.1" stroke="black" stroke-width=".1" fill="none" xmlns="http://www.w3.org/2000/svg">
<path fill="#000000" stroke="#000000" d="M2.46817240078565 4.275000000000003 L2.46817240078565 4.275000000000003 L1.745121688784978e-16 2.850000000000003 L1.745121688784978e-16 2.850000000000003 z"/>
<path fill="#000000" stroke="#000000" d="M2.4681724007856505 7.1250000000000036 L2.4681724007856505 7.1250000000000036 L2.4681724007856505 4.275000000000004 L2.4681724007856505 4.275000000000004 z"/>
<path fill="#000000" stroke="#000000" d="M1.745121688784978e-16 2.8500000000000036 L1.745121688784978e-16 2.8500000000000036 L-2.4681724007856496 4.275000000000003 L-2.4681724007856496 4.275000000000003 z"/>
<path fill="#000000" stroke="#000000" d="M1.745121688784978e-16 8.550000000000002 L1.745121688784978e-16 8.550000000000002 L2.46817240078565 7.1250000000000036 L2.46817240078565 7.1250000000000036 z"/>
<path fill="#000000" stroke="#000000" d="M-2.4681724007856496 4.275000000000003 L-2.4681724007856496 4.275000000000003 L-2.46817240078565 7.125000000000003 L-2.46817240078565 7.125000000000003 z"/>
<path fill="#000000" stroke="#000000" d="M-2.46817240078565 7.1250000000000036 L-2.46817240078565 7.1250000000000036 L1.745121688784978e-16 8.550000000000002 L1.745121688784978e-16 8.550000000000002 z"/>
<path fill="#000000" stroke="#000000" d="M2.4681724007856505 4.275000000000003 L1.7451216887849783e-16 2.850000000000003 L-2.46817240078565 4.275000000000002 L-2.4681724007856505 7.125000000000002 L1.7451216887849783e-16 8.55 L2.4681724007856505 7.125000000000002 z"/>
<path fill="#000000" stroke="#000000" d="M2.4681724007856505 4.275000000000003 L2.4681724007856505 7.125000000000002 L1.7451216887849783e-16 8.55 L-2.4681724007856505 7.125000000000002 L-2.46817240078565 4.275000000000002 L1.7451216887849783e-16 2.850000000000003 z"/>
<path fill="#000000" stroke="#000000" d="M1.5155444566227676 4.825000000000004 L1.5155444566227676 4.825000000000004 L1.0715659492539339e-16 3.9500000000000033 L1.0715659492539339e-16 3.9500000000000033 z"/>
<path fill="#000000" stroke="#000000" d="M1.5155444566227678 6.575000000000003 L1.5155444566227678 6.575000000000003 L1.5155444566227678 4.825000000000004 L1.5155444566227678 4.825000000000004 z"/>
<path fill="#000000" stroke="#000000" d="M1.0715659492539339e-16 3.9500000000000037 L1.0715659492539339e-16 3.9500000000000037 L-1.5155444566227672 4.825000000000003 L-1.5155444566227672 4.825000000000003 z"/>
<path fill="#000000" stroke="#000000" d="M1.0715659492539339e-16 7.450000000000004 L1.0715659492539339e-16 7.450000000000004 L1.5155444566227676 6.575000000000003 L1.5155444566227676 6.575000000000003 z"/>
<path fill="#000000" stroke="#000000" d="M-1.5155444566227674 4.825000000000003 L-1.5155444566227674 4.825000000000003 L-1.5155444566227676 6.575000000000003 L-1.5155444566227676 6.575000000000003 z"/>
<path fill="#000000" stroke="#000000" d="M-1.5155444566227674 6.575000000000004 L-1.5155444566227674 6.575000000000004 L1.0715659492539339e-16 7.450000000000003 L1.0715659492539339e-16 7.450000000000003 z"/>
<path fill="#000000" stroke="#000000" d="M1.5155444566227678 4.825000000000003 L1.071565949253934e-16 3.9500000000000033 L-1.5155444566227676 4.825000000000003 L-1.5155444566227678 6.575000000000002 L1.071565949253934e-16 7.450000000000003 L1.5155444566227678 6.575000000000002 z"/>
<path fill="#000000" stroke="#000000" d="M1.5155444566227678 4.825000000000003 L1.5155444566227678 6.575000000000002 L1.071565949253934e-16 7.450000000000003 L-1.5155444566227678 6.575000000000002 L-1.5155444566227676 4.825000000000003 L1.071565949253934e-16 3.9500000000000033 z"/>
</svg>