<?xml version="1.0" encoding="UTF-8"?>
<!-- Generated by jsxcad -->
<!DOCTYPE svg PUBLIC "-//W3C//DTD SVG 1.1 Tiny//EN" "http://www.w3.org/Graphics/SVG/1.1/DTD/svg11-tiny.dtd">
<svg baseProfile="tiny" height="6.14681mm" width="6.17323mm" viewBox="0.00034 0.05319 6.17323 6.14681" version="1.1" stroke="black" stroke-width=".1" fill="none" xmlns="http://www.w3.org/2000/svg">
<path fill="#000000" stroke="#000000" d="M5.86171 4.48230 L5.17420 5.39204 L4.20406 5.99173 L3.08696 6.20000 L1.96985 5.99173 L0.99972 5.39204 L0.31220 4.48230 L0.00034 3.38775 L0.10537 2.25141 L0.61530 1.22892 L1.45782 0.46260 L2.51516 0.05319 L3.65875 0.05319 L4.71610 0.46260 L5.55861 1.22892 L6.06855 2.25141 L6.17357 3.38775 z M4.83696 3.10000 L4.60194 2.22403 L3.96293 1.58502 L3.08696 1.35000 L2.21099 1.58502 L1.57197 2.22403 L1.33696 3.10000 L1.57197 3.97597 L2.21099 4.61498 L3.08696 4.85000 L3.96293 4.61498 L4.60194 3.97597 z"/>
<path fill="#000000" stroke="#000000" d="M4.60194 3.97597 L3.96293 4.61498 L3.08696 4.85000 L2.21099 4.61498 L1.57197 3.97597 L1.33696 3.10000 L1.57197 2.22403 L2.21099 1.58502 L3.08696 1.35000 L3.96293 1.58502 L4.60194 2.22403 L4.83696 3.10000 z"/>
</svg>