<?xml version="1.0" encoding="UTF-8"?>
<!-- Generated by jsxcad -->
<!DOCTYPE svg PUBLIC "-//W3C//DTD SVG 1.1 Tiny//EN" "http://www.w3.org/Graphics/SVG/1.1/DTD/svg11-tiny.dtd">
<svg baseProfile="tiny" height="6.1472166090200995mm" width="6.173551893029218mm" viewBox="-3.086775946514609 -3.0472166090200976 6.173551893029218 6.1472166090200995" version="1.1" stroke="black" stroke-width=".1" fill="none" xmlns="http://www.w3.org/2000/svg">
<path fill="#000000" stroke="#000000" d="M1.1198491651801736 -2.8906639111535033 L1.1198491651801736 -2.8906639111535033 L1.8982025386783972e-16 -3.1 L1.8982025386783972e-16 -3.1 z"/>
<path fill="#000000" stroke="#000000" d="M2.0884564953043268 -2.2909276433840438 L2.0884564953043268 -2.2909276433840438 L1.1198491651801736 -2.8906639111535033 L1.1198491651801736 -2.8906639111535033 z"/>
<path fill="#000000" stroke="#000000" d="M2.775006203200693 -1.381788902907269 L2.775006203200693 -1.381788902907269 L2.088456495304327 -2.2909276433840433 L2.088456495304327 -2.2909276433840433 z"/>
<path fill="#000000" stroke="#000000" d="M3.086775946514607 -0.28603191433623665 L3.086775946514607 -0.28603191433623665 L2.775006203200693 -1.381788902907269 L2.775006203200693 -1.381788902907269 z"/>
<path fill="#000000" stroke="#000000" d="M2.9816594938357395 0.8483552692234562 L2.9816594938357395 0.8483552692234562 L3.0867759465146065 -0.28603191433623665 L3.0867759465146065 -0.28603191433623665 z"/>
<path fill="#000000" stroke="#000000" d="M2.473853404568743 1.8681673727756944 L2.473853404568743 1.8681673727756944 L2.9816594938357395 0.8483552692234562 L2.9816594938357395 0.8483552692234562 z"/>
<path fill="#000000" stroke="#000000" d="M1.6319397049198037 2.635673120761803 L1.6319397049198037 2.635673120761803 L2.4738534045687426 1.8681673727756947 L2.4738534045687426 1.8681673727756947 z"/>
<path fill="#000000" stroke="#000000" d="M0.5696235052313693 3.0472166090200954 L0.5696235052313693 3.0472166090200954 L1.631939704919804 2.635673120761803 L1.631939704919804 2.635673120761803 z"/>
<path fill="#000000" stroke="#000000" d="M-0.5696235052313668 3.0472166090200954 L-0.5696235052313668 3.0472166090200954 L0.5696235052313693 3.0472166090200954 L0.5696235052313693 3.0472166090200954 z"/>
<path fill="#000000" stroke="#000000" d="M-1.6319397049198008 2.635673120761805 L-1.6319397049198008 2.635673120761805 L-0.5696235052313668 3.047216609020096 L-0.5696235052313668 3.047216609020096 z"/>
<path fill="#000000" stroke="#000000" d="M-2.473853404568741 1.8681673727756962 L-2.473853404568741 1.8681673727756962 L-1.6319397049198008 2.635673120761805 L-1.6319397049198008 2.635673120761805 z"/>
<path fill="#000000" stroke="#000000" d="M-2.9816594938357386 0.8483552692234586 L-2.9816594938357386 0.8483552692234586 L-2.4738534045687413 1.8681673727756956 L-2.4738534045687413 1.8681673727756956 z"/>
<path fill="#000000" stroke="#000000" d="M1.8982025386783972e-16 -3.0999999999999996 L1.8982025386783972e-16 -3.0999999999999996 L-1.1198491651801714 -2.890663911153504 L-1.1198491651801714 -2.890663911153504 z"/>
<path fill="#000000" stroke="#000000" d="M-3.086775946514607 -0.2860319143362349 L-3.086775946514607 -0.2860319143362349 L-2.9816594938357386 0.8483552692234587 L-2.9816594938357386 0.8483552692234587 z"/>
<path fill="#000000" stroke="#000000" d="M-2.775006203200694 -1.3817889029072667 L-2.775006203200694 -1.3817889029072667 L-3.0867759465146074 -0.2860319143362349 L-3.0867759465146074 -0.2860319143362349 z"/>
<path fill="#000000" stroke="#000000" d="M-1.1198491651801714 -2.890663911153504 L-1.1198491651801714 -2.890663911153504 L-2.0884564953043268 -2.2909276433840438 L-2.0884564953043268 -2.2909276433840438 z"/>
<path fill="#000000" stroke="#000000" d="M-2.088456495304327 -2.2909276433840433 L-2.088456495304327 -2.2909276433840433 L-2.775006203200694 -1.3817889029072667 L-2.775006203200694 -1.3817889029072667 z"/>
<path fill="#000000" stroke="#000000" d="M1.1198491651801739 -2.890663911153503 L1.8982025386783975e-16 -3.0999999999999996 L-1.1198491651801716 -2.8906639111535037 L-2.088456495304327 -2.2909276433840433 L-2.775006203200694 -1.3817889029072667 L-3.0867759465146074 -0.2860319143362349 L-2.9816594938357386 0.8483552692234587 L-2.4738534045687413 1.8681673727756958 L-1.631939704919801 2.6356731207618047 L-0.569623505231367 3.0472166090200954 L0.5696235052313694 3.047216609020095 L1.6319397049198041 2.6356731207618025 L2.473853404568743 1.8681673727756944 L2.9816594938357395 0.8483552692234562 L3.086775946514607 -0.28603191433623665 L2.775006203200693 -1.381788902907269 L2.088456495304327 -2.2909276433840433 z"/>
<path fill="#000000" stroke="#000000" d="M1.8982025386783975e-16 -3.0999999999999996 L1.1198491651801739 -2.890663911153503 L2.088456495304327 -2.2909276433840433 L2.775006203200693 -1.381788902907269 L3.086775946514607 -0.28603191433623665 L2.9816594938357395 0.8483552692234562 L2.473853404568743 1.8681673727756944 L1.6319397049198041 2.6356731207618025 L0.5696235052313694 3.047216609020095 L-0.569623505231367 3.0472166090200954 L-1.631939704919801 2.6356731207618047 L-2.4738534045687413 1.8681673727756958 L-2.9816594938357386 0.8483552692234587 L-3.0867759465146074 -0.2860319143362349 L-2.775006203200694 -1.3817889029072667 L-2.088456495304327 -2.2909276433840433 L-1.1198491651801716 -2.8906639111535037 z"/>
<path fill="#000000" stroke="#000000" d="M0.875 -1.5155444566227676 L0.875 -1.5155444566227676 L1.0715659492539339e-16 -1.75 L1.0715659492539339e-16 -1.75 z"/>
<path fill="#000000" stroke="#000000" d="M1.5155444566227678 -0.8749999999999998 L1.5155444566227678 -0.8749999999999998 L0.8750000000000002 -1.5155444566227674 L0.8750000000000002 -1.5155444566227674 z"/>
<path fill="#000000" stroke="#000000" d="M1.75 0 L1.75 0 L1.5155444566227678 -0.8749999999999998 L1.5155444566227678 -0.8749999999999998 z"/>
<path fill="#000000" stroke="#000000" d="M1.0715659492539339e-16 1.75 L1.0715659492539339e-16 1.75 L0.875 1.5155444566227676 L0.875 1.5155444566227676 z"/>
<path fill="#000000" stroke="#000000" d="M1.5155444566227678 0.8749999999999998 L1.5155444566227678 0.8749999999999998 L1.75 0 L1.75 0 z"/>
<path fill="#000000" stroke="#000000" d="M0.8750000000000002 1.5155444566227674 L0.8750000000000002 1.5155444566227674 L1.5155444566227678 0.8749999999999998 L1.5155444566227678 0.8749999999999998 z"/>
<path fill="#000000" stroke="#000000" d="M-0.8749999999999994 1.5155444566227678 L-0.8749999999999994 1.5155444566227678 L1.0715659492539338e-16 1.7499999999999998 L1.0715659492539338e-16 1.7499999999999998 z"/>
<path fill="#000000" stroke="#000000" d="M-1.5155444566227676 -0.875 L-1.5155444566227676 -0.875 L-1.7499999999999998 2.1431318985078678e-16 L-1.7499999999999998 2.1431318985078678e-16 z"/>
<path fill="#000000" stroke="#000000" d="M-1.5155444566227676 0.8749999999999999 L-1.5155444566227676 0.8749999999999999 L-0.8749999999999994 1.5155444566227678 L-0.8749999999999994 1.5155444566227678 z"/>
<path fill="#000000" stroke="#000000" d="M-1.75 2.1431318985078676e-16 L-1.75 2.1431318985078676e-16 L-1.5155444566227678 0.8749999999999998 L-1.5155444566227678 0.8749999999999998 z"/>
<path fill="#000000" stroke="#000000" d="M-0.8750000000000008 -1.5155444566227672 L-0.8750000000000008 -1.5155444566227672 L-1.5155444566227676 -0.8750000000000001 L-1.5155444566227676 -0.8750000000000001 z"/>
<path fill="#000000" stroke="#000000" d="M1.0715659492539339e-16 -1.7499999999999998 L1.0715659492539339e-16 -1.7499999999999998 L-0.8750000000000007 -1.5155444566227674 L-0.8750000000000007 -1.5155444566227674 z"/>
<path fill="#000000" stroke="#000000" d="M0.8750000000000002 -1.5155444566227674 L1.071565949253934e-16 -1.7499999999999998 L-0.8750000000000008 -1.5155444566227672 L-1.5155444566227676 -0.8750000000000001 L-1.75 2.1431318985078676e-16 L-1.5155444566227678 0.8749999999999997 L-0.8749999999999996 1.5155444566227676 L1.071565949253934e-16 1.7499999999999998 L0.8750000000000002 1.5155444566227674 L1.5155444566227678 0.8749999999999997 L1.75 0 L1.5155444566227678 -0.8749999999999997 z"/>
<path fill="#000000" stroke="#000000" d="M1.071565949253934e-16 -1.7499999999999998 L0.8750000000000002 -1.5155444566227674 L1.5155444566227678 -0.8749999999999997 L1.75 0 L1.5155444566227678 0.8749999999999997 L0.8750000000000002 1.5155444566227674 L1.071565949253934e-16 1.7499999999999998 L-0.8749999999999996 1.5155444566227676 L-1.5155444566227678 0.8749999999999997 L-1.75 2.1431318985078676e-16 L-1.5155444566227676 -0.8750000000000001 L-0.8750000000000008 -1.5155444566227672 z"/>
</svg>