<?xml version="1.0" encoding="UTF-8"?>
<!-- Generated by jsxcad -->
<!DOCTYPE svg PUBLIC "-//W3C//DTD SVG 1.1 Tiny//EN" "http://www.w3.org/Graphics/SVG/1.1/DTD/svg11-tiny.dtd">
<svg baseProfile="tiny" height="5.677526712417606mm" width="5.688752174377445mm" viewBox="0 0 5.688752174377445 5.677526712417606" version="1.1" stroke="black" stroke-width=".1" fill="none" xmlns="http://www.w3.org/2000/svg">
<path fill="#000000" stroke="#000000" d="M1.47138 5.33624 L0.89342 4.91632 L0.43804 4.36587 L0.13387 3.71946 L0 3.01772 L0.04486 2.30473 L0.26562 1.62529 L0.64841 1.0221 L1.16919 0.53306 L1.79522 0.1889 L2.48718 0.01124 L3.20158 0.01124 L3.89353 0.1889 L4.51956 0.53306 L5.04034 1.0221 L5.42313 1.62529 L5.64389 2.30473 L5.68875 3.01772 L5.55489 3.71946 L5.25071 4.36587 L4.79534 4.91632 L4.21737 5.33624 L3.55314 5.59923 L2.84438 5.68876 L2.13561 5.59923 z"/>
<path fill="#000000" stroke="#000000" d="M3.553139463584938 5.599225753831403 L3.553139463584938 5.599225753831403 L2.8443803440046618 5.688762723081239 L2.8443803440046618 5.688762723081239 z"/>
<path fill="#000000" stroke="#000000" d="M2.135610570570997 5.599225483458942 L2.135610570570997 5.599225483458942 L2.8443795330675274 5.688763696156467 L2.8443795330675274 5.688763696156467 z"/>
<path fill="#000000" stroke="#000000" d="M4.7953402850618945 4.916320392354135 L4.7953402850618945 4.916320392354135 L4.217370133286445 5.336240183453099 L4.217370133286445 5.336240183453099 z"/>
<path fill="#000000" stroke="#000000" d="M4.217369633519439 5.336239074376123 L4.217369633519439 5.336239074376123 L3.5531387310382745 5.5992267949697805 L3.5531387310382745 5.5992267949697805 z"/>
<path fill="#000000" stroke="#000000" d="M5.554888282947015 3.719459192016641 L5.554888282947015 3.719459192016641 L5.250710501944631 4.365870236197084 L5.250710501944631 4.365870236197084 z"/>
<path fill="#000000" stroke="#000000" d="M5.250710313268942 4.365870259158646 L5.250710313268942 4.365870259158646 L4.795339179507762 4.916319321229689 L4.795339179507762 4.916319321229689 z"/>
<path fill="#000000" stroke="#000000" d="M5.643894866998105 2.3047296937945005 L5.643894866998105 2.3047296937945005 L5.688752395586148 3.0177198492825275 L5.688752395586148 3.0177198492825275 z"/>
<path fill="#000000" stroke="#000000" d="M5.688751423124509 3.017720271475542 L5.688751423124509 3.017720271475542 L5.55488749077436 3.71945952133957 L5.55488749077436 3.71945952133957 z"/>
<path fill="#000000" stroke="#000000" d="M5.423132124157234 1.6252893098195076 L5.423132124157234 1.6252893098195076 L5.643895225264682 2.304728302208663 L5.643895225264682 2.304728302208663 z"/>
<path fill="#000000" stroke="#000000" d="M5.040336859837175 1.0221019928078714 L5.040336859837175 1.0221019928078714 L5.423131139780454 1.625289276673348 L5.423131139780454 1.625289276673348 z"/>
<path fill="#000000" stroke="#000000" d="M3.20158 0.011236548423768866 L3.20158 0.011236548423768866 L2.48718 0.011236548423768866 L2.48718 0.011236548423768866 z"/>
<path fill="#000000" stroke="#000000" d="M3.8935299823714242 0.18890006865881376 L3.8935299823714242 0.18890006865881376 L3.2015805726182482 0.011237769797746981 L3.2015805726182482 0.011237769797746981 z"/>
<path fill="#000000" stroke="#000000" d="M4.519558841363589 0.5330621075512917 L4.519558841363589 0.5330621075512917 L3.8935301031951184 0.18889981228882255 L3.8935301031951184 0.18889981228882255 z"/>
<path fill="#000000" stroke="#000000" d="M4.519559413852641 0.533060624183537 L4.519559413852641 0.533060624183537 L5.040336932056252 1.0221032670282524 L5.040336932056252 1.0221032670282524 z"/>
<path fill="#000000" stroke="#000000" d="M1.169191663280473 0.5330630254952103 L1.169191663280473 0.5330630254952103 L1.7952204014489446 0.18890073023274126 L1.7952204014489446 0.18890073023274126 z"/>
<path fill="#000000" stroke="#000000" d="M1.7952201521063975 0.1889005924156829 L1.7952201521063975 0.1889005924156829 L2.487178943393712 0.011235884787590007 L2.487178943393712 0.011235884787590007 z"/>
<path fill="#000000" stroke="#000000" d="M0.2656204103107363 1.625290260391104 L0.2656204103107363 1.625290260391104 L0.6484146902540154 1.0221029765256273 L0.6484146902540154 1.0221029765256273 z"/>
<path fill="#000000" stroke="#000000" d="M0.6484140868673292 1.0221043520716566 L0.6484140868673292 1.0221043520716566 L1.1691916050709394 0.533061709226941 L1.1691916050709394 0.533061709226941 z"/>
<path fill="#000000" stroke="#000000" d="M-2.2978150751107855e-7 3.017719985543376 L-2.2978150751107855e-7 3.017719985543376 L0.044857298806535405 2.304729830055349 L0.044857298806535405 2.304729830055349 z"/>
<path fill="#000000" stroke="#000000" d="M0.04485674147820918 2.304728941242137 L0.04485674147820918 2.304728941242137 L0.2656198425856582 1.625289948852982 L0.2656198425856582 1.625289948852982 z"/>
<path fill="#000000" stroke="#000000" d="M0.13386495837448653 3.7194609617415826 L0.13386495837448653 3.7194609617415826 L6.749067107552819e-7 3.0177198712546485 L6.749067107552819e-7 3.0177198712546485 z"/>
<path fill="#000000" stroke="#000000" d="M0.8934161744937955 4.916323164734427 L0.8934161744937955 4.916323164734427 L0.4380409776384771 4.365869191226995 L0.4380409776384771 4.365869191226995 z"/>
<path fill="#000000" stroke="#000000" d="M0.4380412782446189 4.365869398504071 L0.4380412782446189 4.365869398504071 L0.13386531012065334 3.7194622068884895 L0.13386531012065334 3.7194622068884895 z"/>
<path fill="#000000" stroke="#000000" d="M1.4713806611430096 5.3362383301440195 L1.4713806611430096 5.3362383301440195 L2.135611563624174 5.599226050737676 L2.135611563624174 5.599226050737676 z"/>
<path fill="#000000" stroke="#000000" d="M1.4713806179422417 5.336239149475259 L1.4713806179422417 5.336239149475259 L0.8934170112528855 4.916324113658512 L0.8934170112528855 4.916324113658512 z"/>
<path fill="#000000" stroke="#000000" d="M0.89342 4.91632 L1.47138 5.33624 L2.13561 5.59923 L2.84438 5.68876 L3.55314 5.59923 L4.21737 5.33624 L4.79534 4.91632 L5.25071 4.36587 L5.55489 3.71946 L5.68875 3.01772 L5.64389 2.30473 L5.42313 1.62529 L5.04034 1.0221 L4.51956 0.53306 L3.89353 0.1889 L3.20158 0.01124 L2.48718 0.01124 L1.79522 0.1889 L1.16919 0.53306 L0.64841 1.0221 L0.26562 1.62529 L0.04486 2.30473 L0 3.01772 L0.13387 3.71946 L0.43804 4.36587 z"/>
<path fill="#000000" stroke="#000000" d="M2.13259 4.43747 L1.54387 4.00974 L1.18003 3.37954 L1.10396 2.65584 L1.32883 1.96376 L1.81575 1.42298 L2.48053 1.12701 L3.20822 1.12701 L3.873 1.42298 L4.35992 1.96376 L4.58479 2.65584 L4.50873 3.37954 L4.14488 4.00974 L3.55617 4.43747 L2.84438 4.58876 z"/>
<path fill="#000000" stroke="#000000" d="M3.556169372879493 4.43746704962946 L3.556169372879493 4.43746704962946 L2.844380513406344 4.588762415387371 L2.844380513406344 4.588762415387371 z"/>
<path fill="#000000" stroke="#000000" d="M2.1325902888403125 4.437468641112926 L2.1325902888403125 4.437468641112926 L2.844379148313463 4.588764006870837 L2.844379148313463 4.588764006870837 z"/>
<path fill="#000000" stroke="#000000" d="M4.5087254261548315 3.37953951926993 L4.5087254261548315 3.37953951926993 L4.5847892511134996 2.655839921288927 L4.5847892511134996 2.655839921288927 z"/>
<path fill="#000000" stroke="#000000" d="M4.1448805084004166 4.0097402935251445 L4.1448805084004166 4.0097402935251445 L4.5087276387711155 3.37953863674374 L4.5087276387711155 3.37953863674374 z"/>
<path fill="#000000" stroke="#000000" d="M4.144880759357889 4.009741045166445 L4.144880759357889 4.009741045166445 L3.556167364922589 4.437466373127178 L3.556167364922589 4.437466373127178 z"/>
<path fill="#000000" stroke="#000000" d="M3.872998332681669 1.4229815012601676 L3.872998332681669 1.4229815012601676 L4.3599186081643575 1.9637612532144402 L4.3599186081643575 1.9637612532144402 z"/>
<path fill="#000000" stroke="#000000" d="M4.359919467434895 1.9637601730409164 L4.359919467434895 1.9637601730409164 L4.584789879470929 2.6558400391622743 L4.584789879470929 2.6558400391622743 z"/>
<path fill="#000000" stroke="#000000" d="M3.2082220778224264 1.1270053331343457 L3.2082220778224264 1.1270053331343457 L3.8729986888035515 1.4229829449954874 L3.8729986888035515 1.4229829449954874 z"/>
<path fill="#000000" stroke="#000000" d="M1.8157516709139123 1.4229837529341522 L1.8157516709139123 1.4229837529341522 L2.4805282818950367 1.1270061410730106 L2.4805282818950367 1.1270061410730106 z"/>
<path fill="#000000" stroke="#000000" d="M2.48053 1.127005100250246 L2.48053 1.127005100250246 L3.20822 1.127005100250246 L3.20822 1.127005100250246 z"/>
<path fill="#000000" stroke="#000000" d="M1.1039620872718923 2.655840678195846 L1.1039620872718923 2.655840678195846 L1.3288324993079257 1.963760812074488 L1.3288324993079257 1.963760812074488 z"/>
<path fill="#000000" stroke="#000000" d="M1.3288325926665314 1.963762334447429 L1.3288325926665314 1.963762334447429 L1.8157528681492203 1.4229825824931563 L1.8157528681492203 1.4229825824931563 z"/>
<path fill="#000000" stroke="#000000" d="M1.54387112238259 4.009739351992048 L1.54387112238259 4.009739351992048 L1.1800264920122432 3.3795420253378654 L1.1800264920122432 3.3795420253378654 z"/>
<path fill="#000000" stroke="#000000" d="M1.1800268337267763 3.379540332788429 L1.1800268337267763 3.379540332788429 L1.1039628995063044 2.655839695249879 L1.1039628995063044 2.655839695249879 z"/>
<path fill="#000000" stroke="#000000" d="M1.5438699918710648 4.009740011188518 L1.5438699918710648 4.009740011188518 L2.13258993139123 4.437470094431868 L2.13258993139123 4.437470094431868 z"/>
<path fill="#000000" stroke="#000000" d="M1.54387 4.00974 L2.13259 4.43747 L2.84438 4.58876 L3.55617 4.43747 L4.14488 4.00974 L4.50873 3.37954 L4.58479 2.65584 L4.35992 1.96376 L3.873 1.42298 L3.20822 1.12701 L2.48053 1.12701 L1.81575 1.42298 L1.32883 1.96376 L1.10396 2.65584 L1.18003 3.37954 z"/>
</svg>